/* XPM */
static char *_2260e3bfb4d4c4cccb3398a2715b8c7K712HfRCW15QSifQ[] = {
/* columns rows colors chars-per-pixel */
"80 80 185 2 ",
"   c #37572D",
".  c #3F5436",
"X  c #425539",
"o  c #6C473C",
"O  c #6E493D",
"+  c #724C3E",
"@  c #4A5242",
"#  c #4F5149",
"$  c #55524F",
"%  c #5F4E5B",
"&  c #595153",
"*  c #6F4C42",
"=  c #754E41",
"-  c #74474E",
";  c #75494B",
":  c #7C4E4E",
">  c #765143",
",  c #7B5342",
"<  c #75534B",
"1  c #7D534C",
"2  c #7B5A4D",
"3  c #634D5D",
"4  c #764750",
"5  c #774852",
"6  c #7C4E51",
"7  c #7D475F",
"8  c #7D495D",
"9  c #7E5050",
"0  c #7C5C51",
"q  c #7D545A",
"w  c #654F62",
"e  c #6A4F67",
"r  c #6D4E6A",
"t  c #7F4863",
"y  c #675063",
"u  c #744C73",
"i  c #7B4977",
"p  c #7C4A79",
"a  c #805744",
"s  c #845A45",
"d  c #895E46",
"f  c #82554C",
"g  c #825B4D",
"h  c #814F55",
"j  c #824D5C",
"k  c #835253",
"l  c #825E51",
"z  c #85515D",
"x  c #88505F",
"c  c #8D6047",
"v  c #8E6148",
"b  c #926349",
"n  c #846154",
"m  c #8A6557",
"M  c #83665A",
"N  c #86695E",
"B  c #8C6B5C",
"V  c #844C64",
"C  c #894D67",
"Z  c #834769",
"A  c #844A6A",
"S  c #8A4E6A",
"D  c #845164",
"F  c #895261",
"G  c #835B63",
"H  c #8B506B",
"J  c #895F6B",
"K  c #894672",
"L  c #864974",
"P  c #8B4C73",
"I  c #8C467C",
"U  c #834A79",
"Y  c #8C4A7B",
"T  c #914E77",
"R  c #934C7E",
"E  c #8D5374",
"W  c #8D5977",
"Q  c #8E577B",
"!  c #8F5B78",
"~  c #945379",
"^  c #935D7B",
"/  c #856066",
"(  c #886267",
")  c #8B6D61",
"_  c #8E666C",
"`  c #916F64",
"'  c #91676F",
"]  c #916A6E",
"[  c #8E7062",
"{  c #947465",
"}  c #9A7566",
"|  c #99756C",
" . c #9B7A69",
".. c #916672",
"X. c #956973",
"o. c #996C75",
"O. c #946279",
"+. c #98657B",
"@. c #996978",
"#. c #9D7372",
"$. c #A17E6C",
"%. c #A07773",
"&. c #A37C71",
"*. c #A5826E",
"=. c #A58171",
"-. c #AA8572",
";. c #AE8975",
":. c #B28C76",
">. c #B58E78",
",. c #B79079",
"<. c #BB927A",
"1. c #7F4980",
"2. c #8D4682",
"3. c #834B83",
"4. c #8F4982",
"5. c #8E468D",
"6. c #864888",
"7. c #8D4A8C",
"8. c #944B83",
"9. c #994F86",
"0. c #95468A",
"q. c #93468C",
"w. c #954B8B",
"e. c #994C8C",
"r. c #945386",
"t. c #9D5282",
"y. c #955B81",
"u. c #985E84",
"i. c #95528A",
"p. c #9B558C",
"a. c #9B5B8C",
"s. c #8F4596",
"d. c #8F4893",
"f. c #934596",
"g. c #994695",
"h. c #954A93",
"j. c #9A4A94",
"k. c #954499",
"l. c #9B459C",
"z. c #96489C",
"x. c #9B499D",
"c. c #9D5395",
"v. c #9E5993",
"b. c #9E519A",
"n. c #A1538F",
"m. c #A04D96",
"M. c #A0459E",
"N. c #A14B9D",
"B. c #A1559B",
"V. c #A4599F",
"C. c #976081",
"Z. c #9C46A2",
"A. c #9D4AA3",
"S. c #A347A4",
"D. c #A14AA4",
"F. c #A34AA4",
"G. c #A049A6",
"H. c #A549A4",
"J. c #A649A5",
"K. c #A64AA4",
"L. c #A34DA5",
"P. c #A74DA7",
"I. c #A849A7",
"U. c #A84BA7",
"Y. c #A247A8",
"T. c #A34AA8",
"R. c #A648A8",
"E. c #A549AA",
"W. c #A34CA8",
"Q. c #A74DA8",
"!. c #A948A9",
"~. c #AC4BAB",
"^. c #A84DA8",
"/. c #A84AAD",
"(. c #AE4BAC",
"). c #AA4DAC",
"_. c #AC4CAC",
"`. c #B04BAD",
"'. c #B14CAE",
"]. c #A451A4",
"[. c #A459A1",
"{. c #A751AA",
"}. c #AA50AB",
"|. c #AA4BB0",
" X c #B04BB0",
/* pixels */
"l.l.l.l.l.k.k.f.f.k.E./././.E.z.k.k.k.k.G.T.T.T.E.(.'.'.'.(.S.S.S.S.x.f.s.f.f.k.G.H.G.G.A.j.g.g.g.j.x.x.x.x.7.u & X                 . $ r 6.G.Q.Q.Q.G.l.k.k.k.l.",
"l.l.l.l.l.k.k.k.k.k.E./././.E.z.k.k.k.k.A.T.T.T.E.(.'.'.'.(.S.S.S.S.x.f.s.s.f.k.G.H.H.H.G.x.l.l.l.x.L.P.L.L.h.U e $ @ @ @ @ @ @ @ @ # 3 u 6.G.Q.Q.Q.G.l.k.k.k.k.",
"l.l.l.l.l.k.k.k.k.k.E./././.E.z.k.k.k.k.A.T.T.T.E.(.'.'.'.(.S.S.S.S.Z.k.f.f.f.k.G.H.P.P.G.x.j.j.l.x.L.P.L.L.z.7.p r y y 3 3 3 3 3 % w r p 5.G.Q.Q.Q.G.l.k.k.k.k.",
"l.l.l.l.l.k.k.k.k.k.E./././.E.z.k.k.k.k.G.T.T.T.E.(.'.'.'.(.S.S.S.S.Z.k.f.f.f.k.G.H.H.P.G.x.j.j.l.x.L.P.L.L.x.z.5.3.3.3.p p p p i u i 1.6.f.G.Q.Q.Q.G.l.k.k.k.k.",
"Z.Z.l.l.l.k.k.k.k.k.E./././.E.l.k.k.k.l.G.E.E.E.E.(.`.`.`.~.H.S.S.S.A.k.f.f.f.k.G.G.L.L.G.G.x.x.x.x.L.L.L.L.A.A.Z.x.x.l.f.f.f.f.f.d.d.f.f.z.G.H.H.H.G.l.l.l.l.k.",
"A.A.A.A.Z.k.k.k.k.k.H.^.^.^.Q.H.H.H.H.H.^.^.^.^.^.!.!.!.!.!.H.G.G.G.G.l.k.k.k.k.A.A.A.A.L.^.).).).^.A.A.A.A.A.l.l.l.l.l.A.A.A.A.G.L.L.L.L.L.G.G.G.G.A.A.A.A.A.A.",
"G.G.G.G.A.k.k.k.k.k.H.^.^.^.^.I.I.I.I.I.^.}.}.}.^.!.!.!.!.!.H.H.H.H.G.l.k.k.k.k.A.A.A.A.A.)._._._.).A.A.A.A.z.k.k.k.l.l.A.G.G.G.G.Q.{.{.{.P.G.A.A.A.A.G.L.L.L.L.",
"G.G.G.G.A.k.k.k.k.k.H.^.^.^.^.I.I.I.I.I.^.}.}.}.^.!.!.!.!.!.H.H.H.H.G.l.k.k.k.k.A.A.A.A.A.)._._._.).A.A.A.A.z.k.k.k.l.l.A.G.G.G.L.Q.{.{.{.P.G.A.x.A.A.G.L.L.L.L.",
"G.G.G.G.A.k.k.k.k.k.H.^.^.^.^.I.I.I.I.I.^.}.}.}.^.!.!.!.!.!.H.H.H.H.G.l.k.k.k.l.A.A.A.A.A.)._._._.).A.A.x.A.x.k.k.k.k.l.A.G.G.G.G.Q.{.{.{.Q.G.A.A.A.A.G.A.A.A.A.",
"A.A.A.A.Z.z.k.k.k.l.H.P.P.P.P.H.H.H.H.H.Q.Q.Q.Q.Q.!.!.!.!.!.H.H.G.H.G.l.k.k.z.l.A.A.A.A.A.)._._._.).A.A.x.A.x.l.k.l.k.l.A.A.A.A.G.Q.Q.Q.Q.Q.G.G.G.G.G.G.A.A.A.L.",
"l.l.x.x.x.G.L.L.L.L.L.L.L.L.L.M.M.M.M.M.l.l.l.l.Z.H.E.E.E.H.S.S.S.S.Z.l.l.l.l.l.f.k.k.k.k.!._._._.!.G.G.G.G.G.l.l.l.l.l.l.l.l.l.x.H.H.H.H.H.!.~.~.~.!.Q.W.W.W.W.",
"l.l.l.l.x.L.P.P.P.P.L.L.L.L.L.M.M.M.M.l.l.l.l.l.l.H.E.E.E.H.S.S.S.S.S.x.x.x.x.l.k.k.k.k.k.!._._._.!.G.G.G.G.G.x.j.l.l.l.l.l.l.l.l.G.H.H.H.H.(.(.(.(.(.Q.Q.W.Q.Q.",
"l.l.l.l.l.L.P.P.P.P.L.L.L.L.L.M.l.l.l.l.l.l.l.l.l.H.E.E.E.H.S.S.S.S.Z.x.x.x.x.l.k.k.k.k.z.^._._._.!.H.G.H.G.G.x.j.j.j.z.l.l.l.l.x.G.H.H.H.H.(.(.(.(.(.Q.Q.Q.Q.Q.",
"l.l.l.l.l.L.P.P.P.P.L.L.L.L.L.M.x.x.l.l.l.l.l.l.l.H.E.E.E.H.x.x.l.j.j.h.h.h.h.h.5.5.5.5.q.m.L.P.P.!.H.G.H.H.G.x.j.j.j.z.l.l.l.l.x.G.H.H.H.H.(.(.(.(.(.Q.Q.Q.Q.Q.",
"l.l.l.l.x.L.P.P.P.P.L.L.L.L.G.M.x.x.x.x.l.l.l.l.l.H.E.E.!.H.j.e.8.R R Y Y Y Y Y Y Y Y Y Y 8.e.m.N.^.H.G.H.G.G.x.l.l.z.z.x.x.l.l.l.G.G.G.G.G.!.!.!.!.!.E.H.E.H.H.",
"I.I.I.I.I.G.A.A.A.A.G.H.H.H.G.x.l.l.l.Z.Z.Z.Z.Z.Z.P.^.^.^.H.j.8.P C C V C C C C V V V V V H T 9.m.P.G.G.G.G.G.l.l.l.l.l.A.A.A.A.A.l.f.f.f.f.k.k.k.k.k.G.H.H.E.H.",
"~.~.~.~.I.A.A.A.A.A.T.T.T.T.G.Z.Z.Z.Z.Z.Z.A.A.A.G.P.^.^.^.L.e.T V : : : : : : : : : : : : 1 F T e.L.G.G.G.G.N.l.l.l.l.Z.A.L.L.L.A.f.f.f.f.f.f.s.s.s.k.G.E.E.E.E.",
"~.~.~.~.!.A.A.A.A.A.T.E.T.T.G.Z.Z.Z.Z.Z.Z.A.A.A.G.P.P.L.N.m.R C h > > > > > > > > > > > > > k H 9.m.j.j.x.N.A.l.l.l.l.Z.A.L.A.L.A.f.f.f.f.f.f.s.s.s.k.G.E.E.E.E.",
"~.~.~.~.I.A.A.A.A.A.T.E.T.T.G.Z.Z.Z.Z.Z.Z.A.A.A.A.P.N.m.e.R S x k , , , , , , , , , , , , , k F E R 8.e.j.x.N.l.l.l.l.l.A.A.A.L.A.f.f.f.f.f.f.s.s.s.k.G.E.E.E.E.",
"!.!.!.!.H.A.A.A.A.A.G.G.G.G.G.Z.x.x.x.Z.Z.A.A.A.A.L.m.9.T C z k f a a a a a a a a a a a a a f k x C P R w.j.x.l.l.l.l.l.L.L.L.L.L.k.f.f.f.f.s.s.s.s.k.G.E.E.E.E.",
"x.x.x.x.x.x.x.x.x.x.x.x.x.x.x.l.l.l.x.x.G.H.H.H.H.G.e.T V 6 1 f s s s s s s s s s s s s s s a f f 1 j P 2.j.x.l.l.l.l.l.Q.}.}.}.Q.Z.l.l.l.z.k.f.k.k.k.!.(.(.(.(.",
"z.z.z.z.z.x.x.x.x.x.x.x.x.l.l.l.l.l.l.x.G.H.G.N.N.m.8.S h > , a s d d d d d d d d d d d d d s a , > 9 V Y q.j.f.k.k.l.l.^.}.}.}.^.Z.Z.Z.Z.Z.k.k.k.k.z./.|.|. X X",
"z.z.z.z.z.x.x.x.x.x.x.x.x.x.l.l.l.l.l.x.G.G.N.j.e.8.P F k , a a a s d d d d c c c d d d d s a a a , 1 z S Y 4.q.f.k.l.l.^._.}._.^.Z.Z.Z.Z.Z.k.k.k.k.z./. X X X X",
"z.z.z.z.z.x.x.x.x.x.x.x.x.x.l.l.l.l.l.x.G.G.j.8.T C x k f a a a a s s d c v b b b v c d d s a a a a f k z V P Y q.k.l.l.^._._._.^.Z.Z.Z.Z.Z.k.k.k.k.z./. X X X X",
"x.x.x.x.x.x.x.x.x.x.x.x.x.x.l.l.l.l.l.x.H.N.e.P V 6 f f s s s a a a s d v b b b b b v d s a a s s s a f 1 6 j S 2.k.l.l.Q.^.^.^.Q.Z.l.l.l.l.k.k.k.k.z./.`.`.`.`.",
"L.L.L.L.L.x.x.x.x.x.S.S.S.S.M.f.f.f.f.f.L.m.8.H k > , a s d s a a a s d b b b b b b b d s a a a s d s a , > : V Y q.f.g.x.G.G.G.G.l.l.l.l.k.f.k.k.k.k.!._.'._.(.",
"L.L.L.L.L.x.x.x.x.x.S.S.S.S.S.k.f.f.5.q.e.r.E F f , , a a s s a a a s d b b b b b v d d s a a a s d s a a , 1 j C Y 4.0.j.x.G.G.x.l.l.l.l.k.k.k.k.k.k.!._.'.(.(.",
"L.L.L.L.L.x.x.x.x.x.S.S.S.S.S.k.f.f.2.Y P H F k f a a a a a a a a a s d b b b b v d d s a a a a s d s s a a f k j V P Y w.j.G.G.x.l.l.l.l.k.k.k.k.k.k.!.'.'.(._.",
"L.L.L.L.L.x.x.x.x.x.S.S.S.S.S.k.f.5.I A V k k f s s a a a a a a a a s d b b b v d s a a a a a a s d d s s s s f f 6 j S 8.j.G.S.x.l.l.l.l.k.k.k.k.k.k.!.(.(.`._.",
"L.L.L.L.L.x.x.x.x.x.G.G.G.G.S.k.f.q.Y V 6 > , a s d s s a a a a a a s d v b v d s a a a a a a a s d d d d d s a , > : V R j.Z.x.x.l.g.f.f.k.k.k.k.k.l.I.!.!.~.I.",
"A.A.A.A.A.A.A.A.A.A.T.Q.Q.Q.H.G.G.j.R C 6 > , a s d s s a a a a a a s d d v d d s a a a a a a s s d d d d d d a , > : C Y f.z.z.z.f.f.f.f.k.G.E.E.E.H.l.l.l.l.g.",
"A.A.A.A.A.A.A.A.A.A.Q.Q.Q.Q.Q.H.G.N.8.C 6 > , a s d d s s s a a a a a s d d d s a a a a a s s s d d d d d d d s , > 6 C Y f.z.z.z.f.f.f.f.k.Q.^.^.^.E.l.k.k.k.0.",
"A.A.A.A.A.A.A.A.A.A.W.Q.Q.Q.Q.H.G.N.8.C 6 > , a s d d d d s s a a a a a a s a a a a a a s s d d d d d d d c d s , > 6 S Y h.z.z.z.f.f.f.f.k.Q.^.^.^.E.l.l.l.k.8.",
"A.A.A.A.A.A.A.A.A.A.W.Q.Q.Q.Q.H.G.N.8.C 6 > , a s d d d d d s s a a a a a a a a a a a s s d d d d d d d c c d s , > : C Y h.z.z.z.f.f.f.f.k.Q.^.^.^.E.l.l.l.f.R ",
"A.A.A.A.A.G.G.G.G.G.W.Q.Q.Q.Q.H.G.m.8.C 6 > , a s d d d d d s s a a a a a a a a a a s s d d d d d d d d d d s a > = : C Y f.z.z.k.f.f.f.f.k.P.Q.Q.Q.H.l.l.l.g.R ",
"k.k.k.k.l.P.^.^.^.^.G.A.A.A.G.P.P.m.8.C 6 > , a d d d d d d d s s s s s s s s s s s s d d d d d d d d d s s a , > + ; V Y q.l.l.l.z.z.z.z.z.A.L.L.L.G.G.N.N.N.~ ",
"k.k.k.k.l.^._.}._.^.G.A.A.A.A.P.P.m.8.C 6 > , s d c d d d d d d s s s s s s s s s s d d c c c c c c d s a , , > + O ; t I q.l.l.l.z.z.z.z.z.A.L.L.L.G.G.G.G.N.~ ",
"k.k.k.k.l.^._._._.^.G.A.A.A.A.P.P.m.8.C 6 > , s d v c d d d d d d d d d d d d d d d d d c c v v v v d s , > = = = O - t I q.l.l.l.z.z.z.z.z.A.L.L.L.G.G.G.G.N.~ ",
"k.k.k.k.l.^._.}.}._.G.A.A.A.A.P.].B.8.C : = > a d d d d d d d d d d d d d d d d d d d d d d d d d d s a > = = ; ; 5 7 L 2.h.l.l.l.z.z.z.z.z.A.L.L.L.G.G.G.N.N.~ ",
"k.k.k.k.l.P._._._.^.A.A.A.A.A.P.P.m.8.S ; + > , a d d d d d d d d d d d d d d d d d d s s s a a a a a , > + = 6 7 Z L 4.q.g.x.x.l.z.z.z.z.z.A.G.G.G.G.G.G.G.m.t.",
"k.k.k.k.l.S.G.G.H.S.l.k.k.k.k.x.S.g.I V ; + = > , s d d d c c c c c c c c c d d d d s a a , , , , , > > + + ; 7 P 8.j.j.N.P.^.^.H.k.k.k.k.k.S.H.H.H.H.Q.Q.Q.L.p.",
"k.k.k.k.l.S.S.S.S.S.k.k.k.k.k.l.M.g.I Z - O = > , a s d d v v v v v v v v v c d d d s a , > > > > > = + + O - V 8.N.P.P.^._._._.!.k.k.k.k.k.S.H.H.H.H.Q.Q.Q.].p.",
"k.k.k.k.l.S.S.S.S.S.k.k.k.k.k.l.M.g.2.K 7 6 ; ; > , , a d d d d d d d d d d d d s s a , > = = = = = = = ; 4 7 P e.G.^.^._._._._.!.l.k.k.k.k.S.H.H.H.H.Q.Q.Q.].n.",
"k.k.k.k.l.S.S.S.S.S.k.k.k.k.k.l.M.l.0.2.K V j 6 ; > > , a s s s s s s s s s a a a a , > = + + + + + = 6 8 t K 8.j.L.^.^._._._._.!.z.k.k.k.k.S.H.H.H.H.Q.Q.Q.P.B.",
"l.l.l.l.l.S.S.S.S.S.l.k.k.k.k.Z.S.x.g.q.w.R S 7 ; + = > > , , , , , , , , , , , , , > = + O O O O O ; 8 Z I q.j.N.H.!.!._._._._.!.l.z.z.k.z.S.S.S.S.G.L.W.W.L.N.",
"/./././.E.M.x.x.x.x.N.N.G.G.G.P.Q.Q.P.P.N.j.R V ; O + + = > > > > > > > > > > > > > = + O O O O o o ; V 4.j.G.G.G.G.E.E.^.^.^.^.Q.Q.Q.Q.P.G.x.z.z.z.z.k.k.k.k.k.",
"|.|.|.|./.x.x.x.x.x.G.G.G.G.G.{.{.{.{.Q.P.N.w.P V 5 ; ; = = = = = = = = = = = > = = > > > > > > = * 6 A q.G.E.H.T.G.G.G.Q.Q.Q.Q.Q.Q.Q.Q.Q.Q.z.z.z.z.k.f.f.f.f.f.",
"|.|.|.|./.x.x.x.x.x.G.G.G.G.G.{.{.{.{.Q.P.N.j.8.P A j 6 ; + + + + + + + + + + + + + > 2 g n n 0 2 < q P w.G.E.H.H.G.G.G.Q.Q.Q.Q.Q.Q.Q.Q.Q.Q.z.z.z.z.k.f.f.f.f.f.",
"|.|.|.|./.Z.x.x.x.x.G.G.G.G.G.Q.{.{.{.{.P.L.j.e.w.q.P V ; O O O O O O O O O O O O O > g m { ` B n 0 G E e.G.E.G.G.G.H.G.Q.Q.Q.Q.Q.Q.^.Q.Q.Q.z.z.z.z.k.f.f.f.k.f.",
"/././././.Z.x.x.x.x.S.S.S.S.G.Q.Q.Q.Q.Q.P.P.L.L.N.x.q.A 5 o o o o o o o o o o o o O < m { *.$.{ B M G Q i.G.G.G.G.G.G.G.Q.Q.Q.Q.Q.Q.^.^.^.Q.x.z.z.z.z.k.k.k.k.k.",
"H.H.H.H.H.S.S.S.S.S.k.k.k.k.k.Z.Z.Z.Z.Z.E././././.E.j.Y t 4 - - - - ; ; * * = = > > l B  .-.=. .[ M / W i.j.A.A.A.A.A.A.G.G.G.G.H.^._._._.!.S.S.S.S.G.W.W.W.W.W.",
"H.H.H.H.H.T.T.T.T.S.k.k.f.f.k.l.Z.Z.Z.Z./././././.E.j.w.Y A Z Z Z V 7 6 < < < 2 l n B } $.-.=. .[ M / W i.z.x.x.x.x.x.A.G.G.G.G.H.~._._._.(.H.H.H.H.H.Q.{.{.{.{.",
"H.H.H.H.H.T.Y.T.Y.S.k.k.f.k.k.k.Z.Z.Z.Z./././././.E.G.z.w.q.8.8.8.4.P D q 0 n m B { } $.=.-.=. .[ M / W i.z.x.x.x.x.x.A.G.G.G.G.H.~._._._.~.H.H.H.H.G.Q././.{.{.",
"H.H.H.H.H.T.Y.Y.Y.S.k.k.f.k.k.k.Z.Z.Z.Z././././././.E.E.G.G.x.x.x.j.w.E G M N {  .*.-.-.-.;.=. .[ M / W i.z.x.x.x.x.x.A.G.G.H.G.H.~._.(._.~.H.H.H.H.G.Q././.{.{.",
"S.S.S.S.S.S.Y.Y.Y.S.k.k.k.k.k.l.l.l.l.Z.E./././././././././.G.G.G.G.c.Q J M ) } *.;.;.;.;.;.=. .{ N / W i.z.x.x.x.x.x.x.G.G.G.G.G.!.!.!.!.!.H.H.H.H.H.Q././././.",
"k.k.k.k.k.Z.Z.Z.A.A.A.A.A.A.Z.l.l.l.l.x.H.E.E.E.E.T.T.T.T.A.Z.Z.Z.x.i.Q J N {  .=.:.:.:.:.:.-. .{ N ( W r.j.l.k.k.k.k.k.k.k.k.k.k.l.x.x.x.x.E.E.E.E.E./././././.",
"f.f.f.f.k.Z.Z.Z.Z.Z.S.S.S.S.S.l.l.l.l.x.H.E.E.E.E.T.A.A.T.A.Z.z.z.z.i.Q _ ) {  .-.>.,.,.,.>.;.$.{ ) ( ! r.j.l.k.k.k.k.f.s.s.s.s.f.l.l.l.l.x.E./././././././././.",
"f.f.f.f.k.Z.Z.Z.Z.Z.S.S.Y.Y.S.l.l.l.l.x.H.E.E.E.E.T.A.T.T.A.Z.z.z.z.i.^ _ ) { *.;.,.<.<.,.,.:.*. .[ _ ^ r.j.l.k.k.k.k.f.s.s.s.s.f.l.l.l.l.l.E./././././././././.",
"f.f.f.f.k.Z.Z.Z.Z.A.S.S.T.T.S.l.l.l.l.x.H.E.E.E.E.T.T.T.T.A.x.z.z.h.r.^ X.{  .=.:.<.<.<.,.,.:.*. .[ _ ^ r.j.l.k.f.k.k.f.s.s.s.s.f.l.l.l.l.l.T./././././././././.",
"s.s.f.f.k.Z.A.A.Z.A.S.S.G.G.S.l.l.l.l.l.S.H.H.H.E.S.A.A.A.A.z.h.i.r.y.@.#. .*.;.>.<.<.,.,.>.;.*. .[ _ ^ r.j.l.k.k.k.k.k.k.k.k.k.k.l.l.l.l.l.G.E.E.E.E.!.!.!.E.E.",
"s.s.s.s.k.A.T.T.T.G.S.S.G.G.Z.l.z.z.z.l.A.G.G.G.A.Z.l.l.l.l.h.i.y.O.@.#.&.-.;.:.,.<.,.,.>.:.-.$. .[ _ ^ i.g.l.l.l.l.l.l.H.Q.Q.Q.P.k.f.f.f.f.x.x.x.x.x.l.l.l.l.l.",
"s.s.s.s.k.A.W.W.W.T.S.G.G.G.x.z.z.z.z.z.A.A.A.A.A.l.l.l.l.l.e.y...] | &.-.>.,.,.,.<.,.>.:.:.-. .{ [ _ ^ i.g.l.l.l.l.l.l.^.).).).Q.k.f.f.f.f.l.l.l.l.l.l.l.l.l.l.",
"s.s.s.s.k.A.W.W.W.G.S.G.S.S.x.z.z.z.z.z.A.A.A.A.A.l.k.l.z.j.r.^ ] {  .*.:.,.,.<.<.<.,.,.:.;.=. .{ [ _ ^ i.g.l.l.l.l.l.l.^.).).).Q.k.f.f.f.f.l.l.l.l.l.l.l.l.l.l.",
"s.s.s.s.k.A.W.W.W.G.S.M.S.S.x.z.z.z.z.z.A.A.A.A.A.l.j.h.i.r.^ @.#. .*.-.:.>.,.,.,.<.,.,.>.:.-.$. .[ _ ^ i.g.l.l.l.l.l.l.^.).).).Q.k.f.f.f.f.l.l.l.l.l.l.l.l.l.l.",
"k.k.k.k.k.A.W.W.W.T.G.G.G.G.x.l.k.k.k.z.A.A.A.A.A.l.j.i.y.^ @.#.&.-.-.;.:.>.>.,.,.<.,.,.,.,.;.*. .[ _ ^ p.j.Z.l.l.l.l.x.^.).).).Q.z.k.k.k.k.x.x.x.x.x.l.l.l.l.l.",
"P.P.P.P.P.L.L.L.L.L.G.S.S.S.S.l.l.l.l.l.A.A.A.A.A.G.c.a.O.] | &.;.>.>.:.:.:.:.>.,.<.<.,.,.,.:.*. .[ ] C.v.].Q.E.!.E.E.E.).).).).^.G.A.A.A.A.G.T.T.T.G.Z.Z.Z.Z.Z.",
"^.^.^.^.^.L.L.L.L.L.G.H.H.H.S.l.l.l.l.l.A.A.A.A.A.P.c.u...[  .*.:.<.,.>.:.;.:.>.,.<.<.,.,.,.;.=.} ` ..u.v.].).^.).).^.^.).).).).).T.G.G.G.G.E.E.E.E.T.A.Z.Z.Z.Z.",
"^.^.^.^.^.L.L.L.L.L.G.H.H.H.S.l.l.l.l.l.A.A.A.A.A.P.c.u...[  .*.:.,.,.,.>.:.>.,.,.<.,.>.:.;.=.%.o...C.a.B.{.).^.).).^.^.).).).).).T.G.G.G.G.E.E.E.E.T.A.Z.Z.Z.Z.",
"^.^.^.^.^.L.L.L.L.L.G.H.H.H.S.l.l.l.l.l.x.A.A.A.A.P.c.u...[  .*.:.<.<.,.,.>.,.,.<.<.>.:.-.$.#.o.+.y.v.B.].{.).^.^.^.^.^.).).).).).T.G.G.G.G.E.E.E.E.T.A.Z.Z.Z.Z.",
"P.P.P.P.P.L.L.L.L.L.G.H.H.H.S.x.l.l.l.l.A.A.A.A.A.G.c.y.' [  .*.:.<.<.<.,.,.,.,.<.<.>.-.$.} ] +.u.c.B.].].Q.Q.^.^.^.^.^.^.).).).Q.G.G.G.G.G.E.E.E.E.T.Z.Z.Z.Z.Z.",
"x.x.x.x.Z.Q.).).).Q.E.T.T.T.T.P.P.P.P.P.G.G.G.G.G.j.i.^ _ [  .*.:.<.<.<.<.<.<.<.<.<.:.*. .[ ] ^ p.x.x.x.x.x.x.E.).).).E.H.H.G.G.G.A.A.A.A.A.Q.^.Q.Q.Q.Z.Z.Z.Z.Z.",
"l.l.l.l.Z.Q.).).).).Q.W.W.W.Q.^.P.P.P.P.H.H.H.G.G.g.r.^ _ [  .*.:.<.<.<.<.<.<.<.<.<.:.*. .[ ] ^ p.x.z.z.z.z.x.E.).).)./.G.G.G.G.G.A.A.A.A.A.Q.^.^.^.Q.Z.Z.Z.Z.Z.",
"l.l.l.l.Z./.).).).).Q.W.W.W.Q.^.^.^.^.P.H.H.H.H.G.g.h.h.w.e.b.B.[.[.V.B.c.c.c.c.c.c.c.j.j.c.b.x.L.A.z.z.z.z.x.E.).).).E.G.G.G.G.G.A.A.A.A.A.Q.^.^.^.Q.Z.Z.Z.Z.Z.",
"l.l.l.l.Z./.).).).).Q.W.W.W.Q.^.^.^.^.P.H.H.H.H.G.l.f.k.f.f.A.L.Q.Q.L.x.x.x.x.z.l.l.l.l.l.A.L.L.L.A.z.z.z.l.x.E.).).).E.G.G.G.G.G.A.A.A.A.A.Q.^.^.^.Q.Z.Z.Z.Z.Z.",
"Z.Z.Z.Z.Z.).).).).).Q.W.W.W.W.P.P.P.P.P.H.H.H.H.G.l.l.l.l.l.L.L.Q.Q.L.x.x.x.x.x.z.l.l.l.x.A.G.G.G.A.l.k.k.k.l.E.).).^.Q.G.G.G.G.G.A.A.A.A.A.P.Q.Q.Q.P.Z.Z.Z.Z.Z.",
"E.E.E.E.E.).).).).).P.P.P.P.L.A.A.A.A.A.G.S.S.S.S.S.S.S.S.S.G.G.S.Y.S.G.G.G.G.G.N.x.x.x.x.G.G.G.G.A.l.k.k.k.l.Q.^.^.^.^.W.W.W.W.L.k.k.k.k.k.A.A.A.A.A.A.A.A.A.A.",
"/./.^.^.^.)._._._.).P.P.P.P.L.A.A.A.A.A.A.A.A.A.A.G.G.G.G.G.S.H.H.H.H.G.G.G.G.G.N.N.N.N.G.G.G.G.G.Z.k.k.k.k.l.^.}.}.}.^.Q.Q.W.W.L.k.f.f.f.f.l.A.A.A.Z.A.A.A.A.A.",
"!./.!.!.).)._._._.).P.P.P.P.L.A.A.A.A.A.A.A.A.A.S.G.G.G.G.G.S.H.H.H.H.G.G.G.G.G.N.N.N.N.G.G.G.G.G.Z.k.k.k.k.l.^.}.}.}.^.Q.Q.Q.Q.L.k.f.f.f.f.l.A.A.A.A.A.A.A.A.A.",
"!.!.!.!.).)._._._.).P.P.P.L.L.A.A.A.A.A.A.A.Z.S.S.G.G.G.G.G.S.H.H.H.H.F.G.G.G.G.G.N.N.N.G.G.G.G.G.A.k.k.k.k.l.^.}.}.}.^.Q.Q.Q.Q.L.k.f.f.f.f.l.A.A.A.A.A.A.A.A.A.",
"!.!.!.!.).)._._._.).P.P.L.L.L.A.A.A.A.A.A.A.A.S.S.G.G.G.G.G.S.H.H.H.H.F.F.G.G.G.G.N.N.N.G.G.G.G.G.Z.k.k.k.k.l.^.}.}.}.^.Q.Q.Q.Q.L.k.f.f.f.f.l.A.A.A.A.A.A.A.A.A."
};
