/* XPM */
static char *f7e8413198a249acb4b533b183520ebeXU3CJMi6phztawCG[] = {
/* columns rows colors chars-per-pixel */
"80 80 153 2 ",
"   c #010200",
".  c #060902",
"X  c #0A0C02",
"o  c #0E1100",
"O  c #0E1409",
"+  c #121500",
"@  c #151A00",
"#  c #1A1D00",
"$  c #10170A",
"%  c #131B0B",
"&  c #181F0A",
"*  c #1D2300",
"=  c #17200D",
"-  c #19240F",
";  c #1F290C",
":  c #1A2511",
">  c #1E2A12",
",  c #212400",
"<  c #242C00",
"1  c #2A2D01",
"2  c #252A08",
"3  c #292E08",
"4  c #273000",
"5  c #2A3300",
"6  c #2E3900",
"7  c #25330D",
"8  c #2A350B",
"9  c #2C3A0C",
"0  c #333501",
"q  c #323C00",
"w  c #3B3D00",
"e  c #353B0A",
"r  c #222E15",
"t  c #243416",
"y  c #2C3C14",
"u  c #273619",
"i  c #283719",
"p  c #273919",
"a  c #2A3C1B",
"s  c #313D13",
"d  c #364100",
"f  c #394500",
"g  c #3D4A00",
"h  c #35460F",
"j  c #3C430C",
"k  c #394B0F",
"l  c #2F4016",
"z  c #2D411D",
"x  c #2F481F",
"c  c #334315",
"v  c #3A4616",
"b  c #3B4A16",
"n  c #32451D",
"m  c #344A1E",
"M  c #3C4B19",
"N  c #3F5310",
"B  c #304720",
"V  c #354B22",
"C  c #394F22",
"Z  c #365023",
"A  c #3C5424",
"S  c #3F5A25",
"D  c #434300",
"F  c #414E00",
"G  c #4B4C01",
"H  c #424A0D",
"J  c #455400",
"K  c #4A5500",
"L  c #4A5A00",
"P  c #475C0F",
"I  c #4A5F0F",
"U  c #525301",
"Y  c #515E00",
"T  c #5A5C00",
"R  c #4C620F",
"E  c #556200",
"W  c #5B6500",
"Q  c #5E6900",
"!  c #50670E",
"~  c #526A0F",
"^  c #4C6310",
"/  c #636500",
"(  c #646D00",
")  c #6B6C00",
"_  c #677000",
"`  c #6B7300",
"'  c #747600",
"]  c #747900",
"[  c #7B7E00",
"{  c #415B25",
"}  c #435D29",
"|  c #45632C",
" . c #49642D",
".. c #46692E",
"X. c #4A6A2E",
"o. c #4C6C31",
"O. c #506D31",
"+. c #4E7233",
"@. c #527434",
"#. c #547B35",
"$. c #597D37",
"%. c #567B39",
"&. c #5A7E39",
"*. c #7E8100",
"=. c #57803A",
"-. c #5C833B",
";. c #5E8C3D",
":. c #62873D",
">. c #628A3E",
",. c #63913E",
"<. c #648D41",
"1. c #669442",
"2. c #6D9645",
"3. c #679B43",
"4. c #6C9B44",
"5. c #6E9C48",
"6. c #709746",
"7. c #709B46",
"8. c #719E49",
"9. c #6EA347",
"0. c #6EA349",
"q. c #6FA948",
"w. c #73A346",
"e. c #76A847",
"r. c #73A24B",
"t. c #75A348",
"y. c #71A649",
"u. c #75A548",
"i. c #77A54B",
"p. c #72A34C",
"a. c #74A34C",
"s. c #73A44C",
"d. c #75A54D",
"f. c #7AA74B",
"g. c #79A64C",
"h. c #71A849",
"j. c #77AA49",
"k. c #72AD4A",
"l. c #74AF4B",
"z. c #74A84C",
"x. c #75A94C",
"c. c #77AA4F",
"v. c #78A84A",
"b. c #79AD4A",
"n. c #7AAB4D",
"m. c #7BA94F",
"M. c #78AA4F",
"N. c #77B04B",
"B. c #74B14C",
"V. c #7DB04B",
"C. c #78AB50",
"Z. c #848500",
"A. c #878800",
/* pixels */
"4.4.4.4.4.4.2.6.6.7.j.b.b.b.v.7.7.7.4.7.u.f.v.v.j.l.B.B.B.k.q.9.9.9.9.7.6.6.6.7.u.d.u.u.y.4.4.5.4.5.s.d.d.d.d.u.j.j.j.t.3.4.4.4.3.1.2.2.2.5.u.x.x.x.u.4.3.3.1.1.",
"4.4.4.4.4.4.2.6.4.7.j.b.b.b.j.7.4.4.4.7.u.f.v.v.j.l.k.k.h.q.4.4.4.4.4.2.2.2.2.2.8.r.r.r.8.3.3.3.3.3.0.r.r.a.d.u.j.j.j.t.3.4.4.4.3.1.2.2.2.5.u.x.d.x.u.4.3.3.1.1.",
"4.4.4.4.4.4.4.4.4.4.j.b.b.b.j.7.4.4.4.7.u.f.v.v.j.k.4.;.%.#.+.+.+.+.+.o.o.o.o.o.@.@.@.@.@.o.o.o.o.o.@.%.>.1.d.u.j.j.j.t.3.3.4.4.4.1.2.2.2.5.d.x.x.x.u.4.3.3.3.3.",
"4.4.4.4.4.4.4.4.4.4.j.b.b.b.j.7.4.4.4.7.u.f.v.v.j.h.;...V x z a a a a a a a a a z z z z z a a a a a z V o.>.r.u.j.j.j.t.3.3.4.4.4.1.2.2.2.5.u.x.x.x.u.4.3.3.3.3.",
"9.9.9.4.4.4.4.4.4.4.j.b.b.b.j.7.4.4.4.7.u.v.v.v.j.q.#.x $ X X X X X X X X X X X X X X X X X X X X X X % V %.r.u.t.t.t.w.4.3.3.4.4.4.4.4.4.5.u.u.u.u.u.4.4.4.4.4.",
"u.u.u.u.t.4.4.4.4.7.u.x.x.x.x.y.y.y.y.y.x.M.d.4.<.%.{ y @ + + + + # # # # + + + # # # # , , , , # # # 2 v  .&.-.>.4.4.4.r.u.u.u.f.g.g.g.g.d.r.r.r.r.r.u.u.u.u.d.",
"u.u.u.u.u.7.4.4.4.7.u.x.x.x.x.h.h.h.h.h.x.C.p.-.o.Z c 9 4 4 4 4 5 w D D w 0 4 0 f G G G G G G G G G G G H M C | #.,.4.4.u.f.f.f.f.M.C.C.C.M.r.r.r.r.r.f.g.g.g.g.",
"u.u.u.u.u.7.4.4.4.7.u.x.x.x.x.h.h.h.h.h.x.C.5.+.x = 2 6 f g g g K E ) ` W L F Y / ' ' ' ' ' ' ' ' ' ' ) G 8 = z X.,.4.4.u.f.f.f.g.M.C.C.C.g.r.r.r.r.r.f.g.g.g.g.",
"u.u.u.u.u.7.4.4.4.7.u.x.x.x.x.h.h.h.h.q.5.1.-.} t + * q J L L L E ( ] [ ` Q E _ [ A.A.A.A.A.A.A.A.Z.Z.] U 0 # y S #.-.,.r.f.f.f.f.M.C.C.C.M.r.r.r.r.r.f.g.g.g.g.",
"u.u.u.u.t.7.7.7.7.7.y.d.d.d.s.y.q.q.q.3.-.o.A c 8 < 6 f J L L L L W ( ` ` ` ` ] *.A.A.A.A.A.A.A.Z.[ ' ( T G D j b Z | %.7.f.f.f.f.M.M.M.M.M.r.r.r.r.r.f.g.g.g.g.",
"4.4.4.4.4.r.d.d.d.s.s.s.s.s.s.9.9.9.9.;.| a - 7 6 f g J L L L L L Y E W _ ] [ Z.Z.A.A.A.A.A.A.A.Z.' ( W / ( / K e ; z X.<.7.7.7.7.y.y.y.y.y.h.l.h.k.l.x.M.M.x.x.",
"3.3.3.3.4.s.d.d.d.d.s.s.s.s.s.9.3.1.,.#.C - X < d J L L L L L L L L L Y ( ] Z.Z.Z.Z.Z.Z.Z.Z.Z.Z.[ ` W E ( ] [ T 0 + t S =.1.1.4.4.q.y.y.y.y.k.l.l.l.l.x.M.M.x.x.",
"3.3.3.3.4.s.d.d.d.d.s.s.s.s.0.9.,.#...A c 7 < 6 g J L L L Y E ( Q E L L W ( ' ' ' ' ' ' ' ' ` ' ` ` ( ( ` ` ` W G w j M { X.$.1.4.q.y.y.y.y.k.l.l.l.l.x.x.x.x.x.",
"3.3.3.3.4.s.d.d.d.d.s.s.s.s.0.9.-.| a t 8 6 d g J L L L L E ( ' ` Q Y L Y E Q Q W W W W Q Q W W ( ` ' ] ` ( W W / / U j t z  .>.4.q.y.y.y.y.k.l.l.l.l.x.x.x.x.x.",
"4.4.4.4.4.s.s.d.d.d.s.s.s.0.5.3.@.m & + < f J J L L L L L W ` *.[ ( E L L L L L L L L L L L L L E ( [ *.` Q E ( ' [ / w @ ; Z $.1.4.9.0.0.y.h.h.h.h.h.j.u.u.u.u.",
"h.h.h.h.h.r.r.r.r.r.u.j.u.4.-.+.S l 2 * 6 g L L L L L L L E ( ` ` Q Y L L L L Y W Q Q Q Q W E L Y Q ` ] ` ( ( ( ` ' / G 0 e M  .@.%.;.1.1.1.4.4.4.4.7.u.u.u.u.u.",
"k.k.k.k.h.r.r.r.r.r.j.v.t.:. .z y 9 6 q f J L L L L L L L L E Q W E L L L L L W ( ' ] ] ] ` W L L E W ( _ ` ' ` ( ( W W T K H s V | %.1.1.1.2.2.2.2.4.u.j.j.j.j.",
"k.k.k.k.h.r.r.r.r.r.j.v.t.#.m $ @ 4 f J J J L L L L L L L L L L L L L L L L L ( ] Z.Z.Z.Z.] ( E L L L E ( ] Z.] ( Y W ` [ ) D # % V +.1.1.1.2.2.2.2.4.u.j.j.j.j.",
"k.k.k.k.h.r.r.r.r.r.j.v.t.#.z X + < g J F f d g J L L L L L L L L Y E W E L L W ` ] [ [ [ ' ` Q W W W Q ( ' ] ` ( Q ( ] Z.) D # $ z +.1.1.1.2.2.2.2.4.u.j.j.j.j.",
"h.h.h.h.h.r.r.r.r.r.u.j.w.@.z X + < g J d 4 < 6 g J L L L L L L Y W _ ` Q E L E W ( ( ( ( ( ` ` ` ` ` ` ` _ ( ` ` ` ] *.Z.) D # $ B +.1.1.1.2.2.2.2.4.u.j.j.j.j.",
"5.5.5.5.5.8.8.8.8.8.4.4.3.+.a X + < g g 5 @ o < d J L L L L L L E ( [ [ ` E L L L L Y Y Y W ` [ Z.Z.Z.*.` Q E ( ' Z.Z.A.A.) D # $ m #.7.7.7.7.4.7.7.7.j.l.l.l.l.",
"5.5.5.5.5.5.8.7.8.4.1.;.%.} y @ # < q q < # @ < f J J F f g J J E ( ] ] ( E L L Y E E E E Q ` ] *.*.*.[ ` ( W _ [ A.A.A.A.' U 1 2 v X.-.>.2.4.7.7.7.7.j.l.l.N.N.",
"5.5.5.5.5.5.7.8.8.3.=.| Z c 9 4 < < < < < < 4 q g J g q < 5 f J L W ( ( W Y L E Q ` ` ` ` ` ` ` ` ` ` ` ` ` ` ] Z.A.A.A.A.[ / U D H M A X.:.2.7.7.7.7.j.N.N.N.N.",
"5.5.5.5.5.5.8.7.8.1.o.B : ; 6 f q < @ @ < q g F J J d < + * 6 J L L E E L L L Q ` [ *.*.*.] _ W E E E W ( ] *.Z.Z.A.A.A.A.Z.[ ' / G 8 ; C #.2.7.7.7.7.j.N.N.N.N.",
"5.5.5.5.5.5.8.8.8.1.| t . + < f q < + + < q F J J J q , o @ 4 f J J J L L L L Q ` *.Z.Z.Z.] ( W Y Y Y E ( ] Z.Z.A.A.A.A.A.A.A.A.' G , X a X.1.4.4.4.7.l.N.N.N.N.",
"p.p.p.p.p.8.8.8.8.1...t . X # < < < < < < < 5 d g J f 6 < < < 4 6 f J L L L L E ( ` ` ` ` ` ` ( ( ( ( ( ` ` ` ] Z.A.A.A.A.A.A.A.' G , X i X.1.4.4.4.4.h.x.B.x.l.",
"s.s.s.s.r.8.8.8.8.1...t . . X + * < q q < * @ 4 f J J g d 5 < @ * 6 g L L L L L E W W W W ( ` ] [ [ [ ] ` ( Q ` [ Z.A.A.A.A.A.A.' G , X i X.1.4.4.4.3.k.N.B.x.x.",
"s.s.s.s.r.8.8.8.8.1...t .       o < f f < + X * q J J J J d < o + 4 g L L L L L L L L L L E ` [ Z.Z.Z.*.` Q E ( ] Z.Z.A.A.A.A.A.' G , X i X.1.4.4.4.3.k.B.B.x.x.",
"s.s.s.s.p.8.8.8.8.1...t .       X # < 5 < * * < 4 6 d g J g 6 , < q F L L L L L L L L L L E Q ` ] ] ] ' ` ( ( ( ` ' [ Z.A.A.A.A.' G , X p X.1.4.4.4.4.h.B.B.B.x.",
"s.s.s.s.a.8.8.8.8.1...u .       . X + * < 5 6 4 * * 4 d J J f d d g J L L L L L L L L L L L E W Q Q Q Q ( ` ] ` ( Q ` [ Z.A.A.A.' G , X p X.1.4.4.4.4.h.h.h.k.k.",
"r.r.r.r.r.r.r.r.r.4.o.p .           . o < d g 4 @ . # 6 J J J J J J L L L L L L L L L L L L L L L L L Y ( ] *.] ( E Q ' Z.A.A.A.' G , X i o.4.j.j.u.u.4.4.4.4.4.",
"r.r.r.r.r.r.r.r.r.4.o.i .       . X + * < 5 6 * o   + , 6 f g J L L L L L L L L L L L L L L L L L L L L W ` ] ` ( Q ( ` ] [ Z.A.' G , X i o.r.M.M.M.u.4.4.4.1.1.",
"r.r.r.r.u.u.u.u.r.4.o.i .       X # < 4 < * # + .   . + * 4 d J L L L L L L L L L L L L L L L L L L L L E W ( ( ` ` ` ` ( ` ] Z.' G , X i o.r.M.M.M.j.4.4.1.1.1.",
"r.r.r.r.u.u.u.u.r.4.o.i .       o < f f < + .           . @ 5 F L L L L L L L L L L L L L L L L L L L L L L Y ( ' Z.] ( E W ` *.' G , X i o.r.M.M.M.j.4.4.4.1.1.",
"r.r.r.r.r.y.u.u.u.4.o.i .       X * 6 q < # + X .         o , q f F J J J g f g J L L L L L L L L L L L L E W ( ` ] ` Q L E ` *.' G , X i o.r.M.M.M.u.4.3.3.3.3.",
"4.4.4.4.4.x.c.c.x.0.o.u .       . + * < < < < # X         . + * 4 d J J d 5 < q g J L L L L L L L L L L E ( ` ` ` ( Q E L E ` *.' G , X a O.8.d.d.d.u.0.0.0.0.0.",
"4.4.4.4.4.x.c.c.x.0.o.u .         . . + < q f < +           . . @ 4 g F 5 # o < d J L L L L L L L L L L ( ' *.' ( E L L L E ` *.' G , X a o.8.d.d.d.u.0.0.0.0.0.",
"4.4.4.4.4.x.c.c.x.0.o.u .         . X @ < q f 4 * o . .     . X @ < q d 4 # + * 5 f F J L L L L L L L L Q ` [ ' ( E Y L L E ( ] ` D # X a o.8.d.d.d.u.0.0.0.0.0.",
"4.4.4.4.4.x.x.x.x.0.o.u .       . + * < < < < < < < @ X   . @ * < < < < < < < < < < q f J L L L L L L L E ( ` ` ` ` Q E L Y W ( W w # X a o.8.d.d.d.u.0.0.0.0.0.",
"4.4.4.4.4.x.x.x.c.0.X.u .       X * q q < # + , 5 d < @ . o < q q < @ @ < 6 d 4 * + < q J L L L L L L L L E W ( ' [ ` Q L L Y E L 0 @ X i o.7.u.u.u.u.r.0.0.0.0.",
"1.1.4.4.4.q.q.q.q.3.X.a O . .   o < d f < @ X * q g 6 * X # 5 F g 4 + o < f J q * X * 6 J L L L L L L L L L L Q ' Z.] ( E L L J f 4 & $ n @.4.w.t.w.y.M.M.M.M.M.",
"1.1.4.4.4.9.q.q.q.4.#.{ z > $   X @ < 4 < < * < < 4 < < * 4 d J F q < < q g J f 5 < 5 f J L L L L L L L L L L E ( ` ` _ ( E F q 5 9 y n | $.4.w.y.t.y.M.M.M.M.M.",
"1.4.4.4.4.9.q.q.q.9.:.%.X.V > . . X + # < 5 q 4 * @ * 4 q f F J J g f d g J L J f d f F J L L L L L L L L L L L E W ( ` ] ( F < * l { @.&.>.9.w.t.w.y.M.M.M.M.M.",
"1.4.4.4.4.9.q.q.q.9.4.1.,.X.i X       X , d g 5 @ X # 5 g J J L L L J J J J J J J J J L L L L L L L L L L L L L L L Q ` Z.) D # $ n @.2.2.4.w.w.w.w.y.M.n.M.M.M.",
"4.4.4.4.4.9.9.9.q.9.4.4.1.X.a X       . @ < 5 < * * , 4 6 d g J L L L J g d q f F J L L L L L L L L L L Y W Q ( Q ( ` [ Z.) D # $ n @.7.7.7.w.w.w.w.y.f.M.M.M.M.",
"b.b.b.b.v.9.4.4.4.4.0.0.4.+.z X       . X + * < 4 6 4 < * < d J L L L J q < * 5 f J L L L L L L L L L L W _ ] ] ] ] [ Z.A.) D # $ V $.d.d.u.8.8.8.8.7.4.7.7.4.4.",
"V.V.V.V.b.9.4.4.4.4.0.0.3.+.z O             . * q g 6 * X @ 5 g J J J g 5 @ X * q J L L L L L L L L L Y ( ] Z.Z.Z.Z.Z.Z.Z.) D # $ V $.d.d.d.8.8.8.8.7.2.2.2.2.2.",
"V.V.V.V.b.9.4.4.4.4.1.-.@.S y * o .         . @ < q 4 , @ * < q d d d q < * @ 4 f J L L L L L L L Y E Q ` *.A.A.A.A.[ ' ) U D 0 8 M  .$.<.4.8.8.8.8.7.2.2.2.2.2.",
"V.V.V.V.b.9.4.4.4.4.=.| m l 9 5 < @ .         X @ * < < 4 4 < * * * * * < 4 5 d g J L L L L L L L W ( ' [ Z.A.A.A.A.' T D w D G G H v C o.>.7.8.8.8.7.2.4.4.4.4.",
"b.b.b.b.b.w.4.4.4.1.o.z $ * 5 g q * X           . X * 5 g q , o . . . o < q F J J L L L L L L L E ( ] Z.Z.A.A.A.A.A.) D # , D ) ) G 2 % V #.4.8.8.8.7.4.4.4.7.7.",
"w.w.w.w.w.t.t.t.t.4.| t . + < d q < @ X .           + < d 4 # .   . X @ < 6 f g J L L Y E E L L E ` [ Z.[ ' ) ) ) ) U 0 # 1 K ' ' G , X z @.4.9.9.9.r.M.M.M.M.M.",
"q.q.q.q.w.j.j.j.j.4.| t . X @ , < < < , @ .         X @ , # o . . + * < < < < q g L E Q ` ( W L E ` [ Z.) U D D D D w 0 4 d T [ ' G , X z +.4.q.q.q.y.M.M.m.m.m.",
"q.q.q.q.w.u.j.j.j.4.| t .   . X @ < d q , o         . . X . .   X * q d 4 # + < d L W ` [ ] ( Y E ` [ [ T 0 # @ + # , 5 f K ( [ ' G , X z +.4.q.q.q.y.M.M.M.m.m.",
"q.q.q.q.w.u.j.j.j.4.| t .       o < d d < o                     X * q d < + . @ 5 g Y ( [ ' W L L W ' ' U 1 X X X X * q L Q ` Z.' G , X z +.4.q.q.q.y.M.M.M.M.M.",
"q.q.q.q.w.t.t.t.e.4. .t .       . @ < < @ .                     . @ < < @ X   o * 4 f Y ( W F q q K W ( K q < < < < 0 K W ` [ Z.] G , X z +.4.w.w.w.y.M.M.M.M.M.",
"4.4.4.4.4.w.w.w.w.4.X.u .       . . o o . .                       . o o X .   . X + < f Y K q * * q K E L F f f f f K W ] *.Z.Z.' G , X i o.w.v.v.v.v.j.l.l.b.b.",
"6.6.2.2.4.7.w.w.w.4.X.u .                 . .           . .                         @ 4 g d < o + < f L L L L L L L W ` *.Z.A.A.' G , X i o.t.b.b.b.b.b.l.l.l.l.",
"6.6.6.2.4.w.w.w.w.4.X.u .             . X @ # + .   . + # @ X                       o * 4 4 < * < q g L E W ( W Y L E ( ` ] *.Z.' G , X i o.t.b.b.b.b.b.l.l.l.l.",
"6.2.2.2.4.w.t.t.w.4.X.u .             . @ 4 6 * o   + , 6 < @ .                     . o @ * < 6 d g J L W ` ] ( W L L E W ( ] Z.' G , X i o.t.b.b.b.b.b.l.l.l.l.",
"6.6.2.2.4.w.t.t.t.4.X.i X             X * q g 4 @ . # 5 g q * X                       . . @ 4 f J J J L ( ] Z.' Q L L L L E ` [ ' G , O a o.w.v.v.v.v.j.j.j.j.j.",
"6.2.2.2.7.f.f.f.M.r.#.A u : O         . @ < 6 4 * # , 4 q 5 < * + X .         . o @ @ @ @ * < 6 d g J L W _ ] ` ( Q W Y L L Y T T H s u A #.3.4.4.4.4.4.4.4.4.4.",
"6.6.2.2.7.f.M.n.M.u.<.@.| B : .       . X @ * < 4 5 4 < * , < 5 < @ .         + * 5 6 6 6 4 < * < q g L E W ( ( ` ' ( W L J f 0 e v A  .@.-.3.4.4.4.4.4.4.4.4.4.",
"2.2.2.2.7.f.M.M.M.f.4.1.1.X.i X           . X * q g 6 * X @ 4 g d < X       . # 6 F J J J d < o + < f L L L Y ( ' Z.] ( Y g 4 @ & n o.<.<.2.3.4.4.4.4.4.4.4.4.4.",
"2.2.2.2.7.f.M.M.M.f.1.-.@.S y # o .         . @ < d 5 * @ * < q 5 * X   . o @ < d J J g f 6 < @ * 5 g L L L L W ` ] ) Y g q 5 , 3 v } @.&.<.3.4.4.4.4.4.4.4.4.4.",
"7.7.7.7.7.f.M.M.M.r.=.| V l 9 4 * + .         X @ , < < 4 < < < * + . . + * 4 d g J g q < < < 4 6 f J L L L L E W ( Y f 1 1 0 D G H v V  .$.3.4.4.4.4.4.4.4.4.4.",
"d.d.d.d.d.d.d.d.d.4.+.x % * 5 f q * X           . X * 5 f q < + . .   . * 6 g J J J d < o @ < d F J J L L L L L L L g 1 + , D / ) G 3 = V #.w.j.j.j.u.t.t.t.t.t.",
"x.x.x.x.x.d.d.d.d.4.X.u . + < d q < @ X .           @ < d 6 < + o o o @ 4 f L L L J d < + * 5 F L L L L J g g g g f q < # 1 U ' ' G , X a @.w.v.v.v.v.t.t.t.t.t.",
"x.x.x.x.x.d.d.d.d.4.X.u . X @ < < < < * + .         X # < < < < < < < 4 q g L L L J g q < 5 f J L L L J f 6 < < < < 5 0 D U / [ ' G , X a @.w.v.v.v.v.t.t.t.t.t.",
"x.x.x.x.x.d.d.d.d.4.X.u . . . o # < q q * X         . . o # 4 d f f f g F J L L L L J F f g J J L L L J q * + o o + 1 F / ' [ Z.' G , X a @.w.v.v.v.v.t.t.t.t.t.",
"d.d.d.d.d.d.d.d.d.4.X.u .       o < d f < @ . .           + < f F F F F F F F F F F F F F F F F F F F f 4 # . . X + 1 U ' Z.Z.A.' G , X a @.w.j.j.j.j.t.t.t.t.t.",
"7.7.7.7.w.M.M.M.M.r.o.i .       . @ < 4 < < * + .         X # < 4 4 4 4 4 4 4 4 4 4 4 4 4 4 4 4 4 4 4 4 < < , 1 0 w G T ) ] *.Z.' G , X a @.r.x.x.x.u.t.w.w.w.w.",
"4.4.4.4.w.M.M.M.M.r.o.i .       . X + # < 5 q , o         . X + @ @ @ @ @ @ @ @ @ @ @ @ @ @ @ @ @ @ @ @ < 5 d F U / / W W ( ] Z.' G , X a @.r.x.x.x.u.w.w.w.w.w.",
"4.4.4.4.t.n.n.n.M.r.@.a O .           X , d g 4 @       .                 . . .       . . . . . . . . X , d L W ` *.' Q L Y ( ] ' G , O n @.r.x.x.x.x.w.w.w.w.w.",
"4.4.4.4.t.n.n.n.M.u.-.| a > $         . @ < 5 * o   . + # + X           X + @ + .   . + @ # # # # # # * 5 f L E ( ` / K d w F U U H c z | -.y.x.x.x.x.t.w.w.w.w.",
"w.w.w.w.t.n.n.n.M.j.1.-.@.C r .         X + @ o .   + * 5 < @ .       . @ < 5 * o . o * 5 q q q q q q q f J L Y E W L q , * , 1 0 b { O.&.1.u.x.x.x.d.t.t.t.t.t.",
"j.j.j.j.v.n.M.n.M.M.u.r.4.@.z O                     @ 5 g q * .       . * q g 5 @ . @ 4 g J J J J J J J J J J L L L d < o . . . & m @.1.2.2.8.r.r.r.r.u.u.u.u.u.",
"b.b.j.j.x.M.M.M.M.M.j.d.r.-.} i r r r > $ .         + < q 5 < # + X . . @ < q 4 * @ * 4 q f g J L L L J F f d q q q 6 8 t t t t a } &.2.2.2.7.r.r.r.t.u.f.f.g.g.",
"l.b.j.j.x.M.M.M.M.M.j.d.y.1.$.o. . . .A u O         . + * < < 4 < @ .   X @ * < < 4 < < * < d J L L L J d 4 * * * * 8 m }  . . .o.%.<.2.2.6.7.8.r.r.r.u.f.f.g.g.",
"l.j.j.j.x.M.M.M.M.M.d.d.u.r.4.2.2.2.2.&.C =           . . @ 4 f d < X     . X * q g q * X @ 5 g L L L J 6 # . . . . t } >.4.4.4.7.1.2.2.2.6.7.r.r.r.r.u.f.f.f.g.",
"j.j.j.j.x.M.M.M.M.M.d.d.d.d.d.f.g.g.g.1.X.z = = = = = = - 7 k R P h 7 : : : > y N ^ N y > 7 k I ~ ~ ! I k 7 = : : : V @.7.M.M.M.g.7.2.2.2.6.7.r.r.r.r.f.f.f.g.g."
};
