/* XPM */
static char *_34a913eb9714216ff64e7d4be928137Zw8oyBmXeYtAfTac[] = {
/* columns rows colors chars-per-pixel */
"80 80 49 1 ",
"  c #8F4596",
". c #934596",
"X c #95459A",
"o c #9A459C",
"O c #96489C",
"+ c #9B499D",
"@ c #A0459F",
"# c #A1499F",
"$ c #9C46A2",
"% c #9E4AA3",
"& c #A247A4",
"* c #A547A6",
"= c #A149A1",
"- c #A348A2",
"; c #A34AA2",
": c #A448A3",
"> c #A24CA3",
", c #A54DA3",
"< c #A049A6",
"1 c #A549A5",
"2 c #A24CA4",
"3 c #A54EA5",
"4 c #A54EA6",
"5 c #A849A7",
"6 c #A247A8",
"7 c #A34AA8",
"8 c #A748A8",
"9 c #A549AA",
"0 c #A34CA8",
"q c #A74CA8",
"w c #A74EA9",
"e c #A848A8",
"r c #AA48A9",
"t c #AB4BAA",
"y c #AD4AAB",
"u c #A84DA8",
"i c #A84CA9",
"p c #A84AAD",
"a c #AF4BAD",
"s c #AA4DAC",
"d c #AC4CAC",
"f c #B04BAD",
"g c #B14CAE",
"h c #A550AA",
"j c #A751AA",
"k c #A950AB",
"l c #AA50AB",
"z c #AA4BB0",
"x c #B04BB0",
/* pixels */
"oooooXXXXX9ppp9XXXXX<7779aggga<;;;$X...X<111<oooo+>42221999<oXXXo....X2qqq<oXXXX",
"oooooXXXXX9ppp9XXXXX%7779aggga<;;;$X...X<111<o++o+>42221999<oXXXo....X2qqq<oXXXX",
"oooooXXXXX9ppp9XXXXX%7779aggga<;;;$X ..X<144<+++o+>4222<999<ooXoo....X<qqq<oXXXX",
"oooooXXXXX9ppp9XXXXX%7779agggf<;;;$X   X<114<+++o+>4222<999<ooooo.....<qqq<oXXXX",
"$$oooXXXXX9ppp9oXXXo<9999afffy1;;;$X...X;<22<;++##>2222<<<<<oooooXXXXO<111<ooooo",
"%%%%$XXXXX1iiiq11111iiiiieeeee1:::;oXXXX%%%%2ssssi%%%%%oXXXo;<<<<22222;;;;%%%%%%",
"<<<<%XXXXX1iiii55555ikkkieeeee1111;oXXXo%%%%%sddds%%%%OXXXXX%<<<<qjjjq>%%%%<2222",
"<<<<%XXXXX1iiii55555ikkkieeeee1111;oXXXo%%%%%sddds%%%%OXXXXX%<<<<qjjj4>%+%%<2222",
"<<<<%XXXXX1iiii55555ikkkieeeee1111;oXXXo%%%%%sdddi%%%%+XXXXX%<<<<qjjjq>%%%%2%%%%",
"%%%%$XXXXo1444411111qqqqqeeeee1111;oXXXo%%%%%sdddi%%%%+XXXXX%<<<<qqqqq;;;;;2%%%%",
"ooooo;2222,,,,,@@@@@oooo$*999*;;;;$oooooXXXXoeddde1;;;;oooooooooo11111eieeeq0000",
"ooooo24444,,,,,@@@@oooooo*999*;;;;$++++oXXXXXidddi1:::;+ooooooooo:1111adaaaqqqqq",
"ooooo24444,,,,,@ooooooooo*9991;;;;$$$o+oXXXXX9ddde1:::;++++oooooo:1111aaaaaqqqqq",
"ooooo24444,,,,,@ooooooooo*9991;;;;$$oo+oXXXXX9dsde1:::;++++Oooooo:1111aaaaaqqqqq",
"ooooo>4444,,,,;oooooooooo19991;;;;;%%%%+OOOOo9isdi1::::+ooOO+++oo;;;;:eeeee91111",
"eeee5;%%%%<777<$ooo$$$$$$4iiii::;;19eee9;>>>;iiiii;;###ooooo%%%%%o....XXXXX<1191",
"yyyy5%%%%%7977<$$$$$$%%%%iiiii::::1epeee14444iiiki>;;;#oooo$%%22%......   X<9999",
"yyyy5%%%%%7977<$$$$$$%%%%iiiii::::1eeeee14444iiiki;;;;#ooooo%%22%......   .<9999",
"yyyye%%%%%7977<$$$$$$%%%%iiiii::::1eeeee14444iiiii;;;;%ooooo%222%......   .<9999",
"eeee1%%%%%<<<<<$ooo$$%%%%4iiii:;;;<9eee911444iiii4;+%%%ooooo22222X....    X<9999",
"++++++++++oo+ooo+++o;111115551%$$%$;;;;;<<<<<;;;;%+++++Xooooqkkkq$oooXX.XXXeaaaa",
"OOOOO+++++oo+ooo+++o:111115551$$$$$$;;;;<<<<<%+++++++++Xooooikkki$$$$$XXXXXpzzxx",
"OOOOO+++++++oooo++oo:111115551$$$$$$;;;;<<<<<%%%++++++OXooooidkki$$$$$XXXXXpxxxx",
"OOOOO++++++++ooo++oo:111115551$$$$$$;;;;<<<<<%%%++++++OXooooikkki$$$$$XXXXXpxxxx",
"++++++++++oooooooooo1144111111$$$$$$$$$$%%%%%;;;;%+OOOOoooooqiiiq$ooooXXXXXaffff",
">>>>>+++++;;;;@X...X4qqqq;$$$;<777<$ooooXXXXo0qqq2oXXXXooooo;;;;;ooooX.XXXoedddf",
"2222>+++++;;;;;X...X4kkkq$$$$$99qq7$++ooXXXXX0qqq0oXXXXooooo$;;;oooooXXXXXXeddff",
"2222>+++++;;;;;X...X4kkkq$$$$$99qq7$%oooXXXXX0qqq0o..XXooooo$;;;oooooXXXXXXeddff",
"2222>+++++;;;;;X...X4kkkq$$$$;99qq7$%o$oXXXXX0qqq0oXXXXooooo$;;;oooooXXXXXXeffff",
"2222>+++++;:::;XXXXX24444$ooo$99977$++ooXXXXX20q02oooooo+++o$%$$ooX..XXXXXo5yyyy",
"%%%%%%%%%%7qqq1;;;;;oooooooooo<<<<%+OOO+<<<<<++++%99999eeey5oXXXX....X<9991oXXXX",
"%%%%%%%%%%qqqqq1:::;oXXXXooooo%<%%%OOOO+<9991+OOO+pppppadddeoXXXX....Xqiii9XXXXX",
"%%%%%%%%%%0qqqq1::::oXXXXooooo%%%%%OOOOO<9991+OOO+9ppppaddgyoXOOX....Xqiii9XXXXX",
"%%%%%%%%%%0qqqq1::::oXXXXooooo%%%%%OOOO+<9991+OOO+9ppppdddgyoXXXX....Xqiii9XXXXX",
"%%%%%;<<<<0qqqq1::::ooooXooooo%7<7%$XXX%79991+OOO+9ppppieeee+XXXX....O4qqq1oXXXX",
"XXXXoieeii<%%%<4,,,,++++ooooo$7qqq7$$$o$qqqqqo...X%2222%%%>%+ooooOOOOO%222<;####",
"XXXXoikkei<%%%<4444,+++++oooo$qqqq0$$$$$qqqqqo...X%>>>%%%%%%+ooooOOOOO%222<;;;##",
"XXXXoikyei<%%%%4444,+++++oooo$qqqq0$$$$$qqqqqo...X%>>>%%%%%%+ooooOOOOO%222<;;;##",
"XXXXoikkke<%%%%4444,+++++oooooqqqq0$$$$$qqqqqo...X%>>>%%%%%%oooooOOOOO%222<;;;;;",
"XXXXoieeei%%%%%4444,+++++ooooo70007$$$$$2qqq2X...X%%%%%%%%%%oooooOOOOO%<<<<;>;;;",
"XX..X;::1;oXXXXo;;;@#####$$$$$$$$$$$$$$$oooooX...Xooooo1qqiiiiii1XXXXX;**<<qqqqq",
"XXXXX;;;;;XXXXXo@@@@;;;;;$$$$$oXXX$$%%%$oXXXXXXXXXooooo9iiiieeeeeXXXXX;***1qjqqq",
"XXXXX;;;:;XXXXXo@@@@;;;;;$$$$$oXXX$$%%%$oXXXXXXXXXooooo9iiiieeeeeoXXXX;***1qjjqq",
"XXXXX;;;:;XXXXXo@@@@;;;;;$$$$$oXXX$$%%%$oXXXXXX.XXooooo9iiiieeeeeXXXXX;***1qjjqq",
"XXoXo;;&;;XXXXX$;;;;;;;@;$$$$$ooXo$%%%%%oooooXXXXXoooo$9eeeitttteoXXXo;;<;<20000",
"pppp9;oooo;;;;;4qqqq:::::99999%$$$%qqqqq;####%oo$$<<<<119999iiiiqqqq4<+OOOXXXXXX",
"zzzzp;oooo;;;;;jjjjj4,::19ppp9;;%%<qqqqq>;>>;;;;;;99999<<<77iiiiqqqqqqOOOOX...XX",
"zzzzp;oooo;;;;;jjjjj4,,,19ppp9;;%%<qqqqq;;>>;;;;;;99999<<<77qiiiqqqqqqOOOOX..XXX",
"zzzzp$oooo;::;;qjjjj4,,,19ppp9;;;;<qqqqq;;;;;;;;;;99999<<<1<qqqqqiiiqqOOOOX.XXXX",
"ppppp$oooo;;;;;qqqqq444419ppp9<;;;<qqqqq;;;;;;;;;;<1111<<<<<qqqqqqiiiq+OOOXXXXXX",
"*****<<<<<XXXXX$$$$$9ppppppppp1<<<<%%%+%4qqq4;;;;;%%%%%%%%%%<<<<1ieeee<;;;;00000",
"*****7779<XXXXXo$$$$pppppppppp1<11<oooo+4qqqq;;;;;+++++++++%<<<<1yddda*1**1qqqqq",
"*****7776<XXXXXo$$$$9ppppppppp<<11<oooo+4qqq4:;;;;+++++++++%<<<<1ydddy****1qqqqq",
"*****7776<XXXXXo$$$$pppppppppp<<11<oooo+4qqq4:;;;;+++++++++%<<1<1ydddy****1qqqqq",
";;;;;<666%oXXXXoooo$9ppppppppp<<<<;ooooo4qqq4;;;;#ooooo+++++;;;;<eeeee1***1qqqqq",
"XXXXX$$$$$%%%%$ooooo199997777%$$$$oooooo;111:+++OooooooXXXXXXXXXXooooo99999ppppp",
"....X$$$$$<<<<<ooooo*99997%%7%$$XXXooooo;**1;OOOOoooooo.....    .ooooo9ppppppppp",
"....X$$$$$<6<<<ooooo*999977%7%$$XXXooooo;11*;OOOOoooooo.....    .ooooo9ppppppppp",
"....X$$$$$<6**<ooooo*99997%%%%$XXXXooooo;*11;OOOOoooooo.....    .ooooo7ppppppppp",
"    X$%%$$<<<<<ooooo<9999<%%%%oXXXXooooo;**1;ooooooooooX....XXXXXooooo<9999eee99",
"    X%777<;;;;$oXXXo%<<<%$oooooooooXXXXX$;;;;$;;;ooXoooXXXXX1qqq4X....oooooooooo",
"    X%0077;;;;oXXXXX%%%%%ooooooooooXXXXX$$$;$;;;;;oooooXXXXoisssqX....oooooooooo",
"    X%0777;;;;oXXXXX%%%%%ooooooooooXXXXX$%$$$&;<;;oooooXXXXoisssqX....oooooooooo",
"    X%0777;;;;oXXXXX%%%%%ooooooooooXXXXX$$$$%&;;;;oooooXXXXoisssqX....oooooooooo",
"XXXXX%0007;;;;ooXXXX%%%%%$oooooooooooooo$$$$$$;;;;$oooooooooisssqoXXXXoooooooooo",
"4444422222;;;;;ooooo%%%%%79999111119eee1ooXXo+++++qqqqq9e999ssssi<%%%%<777<$$$$$",
"iiiii22222<***;ooooo%%%%%9pppp11111issseoXXXoO+OO+qssssissiisssss7<<<<99997%$$$$",
"iiiii22222<***;ooooo%%%%%9pppp11111issseoXXXoOOOO+qssssissiisssss7<<<<99997%$$$$",
"iiiii22222<***;ooooo+%%%%9pppp11111issseoXXXoO++++qssssiiiiisssss7<<<<99997%$$$$",
"4444422222<***<ooooo%%%%%7999911114iiii1oXXXoO++++qqqqqiiiiiisssq<<<<<99997$$$$$",
"oo$o$qsssi9777744444::::;ooooo22222%++++ooooo+;;;%+++++qsss911<<<%%%%%qiqqq$$$$$",
"oooo$qssssq000qiiiii11::;o...X%00j2++++Oooooo%>>>%OOOO+qsssp<<<<<%%%%%qiiiq$$$$$",
"oooo$qssssq000qiiiii1111;o...X%0002++++Oooooo%>>>%OOOO+9sss9<<<<<%%%%%qiiiq$$$$$",
"oooo$qssssq000qiiiii1111;o...X%0002++++Oooooo%>>>%OOOO+9sss9<<<<<%%%%%qiiiq$$$$$",
"$$$$$sssssq0000444441***;ooooo20002+++++Oooo+%;;;%oXooo9ssiq<<<<<%%%%%4qqq4$$$$$",
"99999sssssq44422%%%%<<<<;;;;;;<<77<;;;;;#++++<<<<$XXXXXqiiii00002XXXXX%%%%%%%%%%",
"ppiiisdddsq4442%%%%%%%%%<<<<<<<*11*::::;####;<<<<$XXXXXikkkiqqq02X....o%%%%%%%%%",
"epeessdddsq4442%%%%%%%%%;<<<<<<*11*::::;####;<<<<$XXXXXikkkiqqqq2X....o%%%%%%%%%",
"eeeessdddsq4442%%%%%%%;;;;<<<;<*111::::;####;<<<<%XXXXXikkkiqqqq2X....o%%%%%%%%%",
"eeeessddds4444<%%%%%%%<;;;<<<<<*111::::;####;<<<<%XXXXXikkkiqqqq2X....+%%%%%%%%%"
};
