/* XPM */
static char *da970f972fd74e44afb2dd80a33755b4RjIqJVhsvXlbq2jS[] = {
/* columns rows colors chars-per-pixel */
"64 64 201 2 ",
"   c #8B094F",
".  c #8B0F51",
"X  c #950753",
"o  c #960954",
"O  c #990A56",
"+  c #9D0D5A",
"@  c #871853",
"#  c #941457",
"$  c #951359",
"%  c #9E115C",
"&  c #961B5C",
"*  c #9A1B5E",
"=  c #A2125E",
"-  c #9A1F61",
";  c #A51562",
":  c #A81764",
">  c #AA1966",
",  c #AE1C69",
"<  c #A61863",
"1  c #B11E6C",
"2  c #9B2564",
"3  c #9D366E",
"4  c #9E3F73",
"5  c #A72D6E",
"6  c #B4216E",
"7  c #B62371",
"8  c #BA2674",
"9  c #B72F77",
"0  c #BD2976",
"q  c #BF2A78",
"w  c #AC3675",
"e  c #A83B75",
"r  c #BA377C",
"t  c #C22D7B",
"y  c #C6317F",
"u  c #8C426A",
"i  c #9F4275",
"p  c #915B7E",
"a  c #A54579",
"s  c #A74C7D",
"d  c #C73180",
"f  c #CB3483",
"g  c #CF3887",
"h  c #C33881",
"j  c #D03887",
"k  c #D43B8B",
"l  c #D83F8F",
"z  c #AA4F80",
"x  c #B74F88",
"c  c #A65882",
"v  c #B65088",
"b  c #B95B8D",
"n  c #A7688D",
"m  c #AB6991",
"M  c #B86894",
"N  c #AE7D9A",
"B  c #B4769A",
"V  c #B8749A",
"C  c #BC7FA5",
"Z  c #C7488C",
"A  c #D6428F",
"S  c #D9408F",
"D  c #C3558F",
"F  c #DC4392",
"G  c #DA4C96",
"H  c #C75A93",
"J  c #DC549A",
"K  c #DC5C9E",
"L  c #E14796",
"P  c #E24897",
"I  c #E64B9B",
"U  c #E3539D",
"Y  c #CC649B",
"T  c #C36D9D",
"R  c #C96B9E",
"E  c #C56297",
"W  c #D7639F",
"Q  c #E55BA3",
"!  c #E85DA5",
"~  c #DC64A2",
"^  c #DC6EA9",
"/  c #D96AA3",
"(  c #CA79A3",
")  c #C87CA7",
"_  c #D078A7",
"`  c #DE73AC",
"'  c #D37CAA",
"]  c #E462A6",
"[  c #E768AB",
"{  c #E970B0",
"}  c #9A95AA",
"|  c #AC81A3",
" . c #BB8AA9",
".. c #B699AE",
"X. c #B993AB",
"o. c #A09DB3",
"O. c #BC99B1",
"+. c #BC92B3",
"@. c #A7A5BA",
"#. c #BBA4BC",
"$. c #B4ADBB",
"%. c #C181A7",
"&. c #CE81AB",
"*. c #CD8BAE",
"=. c #C687AD",
"-. c #D382AC",
";. c #D089AE",
":. c #DB81B1",
">. c #CD99BA",
",. c #C898B4",
"<. c #D593B9",
"1. c #E081B4",
"2. c #C5A4B9",
"3. c #D3A7BF",
"4. c #A1ABC1",
"5. c #B0ADC0",
"6. c #AAB4C9",
"7. c #AAB3C7",
"8. c #B0B3C2",
"9. c #BBB3C8",
"0. c #ACBFD3",
"q. c #D89EC0",
"w. c #E893C2",
"e. c #C7A0C0",
"r. c #CDACC9",
"t. c #CBA9C1",
"y. c #D6A9C7",
"u. c #C2B3C3",
"i. c #CDB4C7",
"p. c #C6BBC7",
"a. c #C4BCCD",
"s. c #CCBCCE",
"d. c #CCB7C8",
"f. c #D4BBCE",
"g. c #D1B3C6",
"h. c #E9BCD6",
"j. c #E8A4CB",
"k. c #AEC3CE",
"l. c #BFC6D6",
"z. c #B6C8D3",
"x. c #BACBD5",
"c. c #B9C7D8",
"v. c #BCCDDA",
"b. c #B5C4D7",
"n. c #BFD3DC",
"m. c #C8C1CB",
"M. c #D4C3CE",
"N. c #CAC4D1",
"B. c #CECED5",
"V. c #C2CDDA",
"C. c #C4C9D6",
"Z. c #D5C0D2",
"A. c #D9C4D7",
"S. c #D6CEDC",
"D. c #C4D3DD",
"F. c #C9D3DE",
"G. c #C9DADA",
"H. c #C5D5D6",
"J. c #D3D5DB",
"K. c #D5DADD",
"L. c #DBD8DF",
"P. c #E0C3DA",
"I. c #C3CEE6",
"U. c #C6D2E1",
"Y. c #CDD5E1",
"T. c #C5D8E6",
"R. c #CDDAE3",
"E. c #CEDAEB",
"W. c #D3D7E4",
"Q. c #DBD5E2",
"!. c #D3DCE3",
"~. c #D9DEE3",
"^. c #D6DDE9",
"/. c #D8DEE9",
"(. c #F0CFE2",
"). c #CCE4E5",
"_. c #CEE3EB",
"`. c #D4E2E5",
"'. c #DCE2E5",
"]. c #D4E3EB",
"[. c #DBE3EC",
"{. c #D3E9E9",
"}. c #DDECEC",
"|. c #CDEAF3",
" X c #DBE4F1",
".X c #D5ECF3",
"XX c #DCEDF3",
"oX c #E2E5E7",
"OX c #E1E6EB",
"+X c #E3EEEC",
"@X c #E3EDED",
"#X c #EFE0EB",
"$X c #E4E7F2",
"%X c #E1EEF3",
"&X c #E9EDF2",
"*X c #EEF0F4",
"=X c #E7F5FA",
"-X c #EAF1F9",
";X c #E9FAFE",
":X c #F1F2F6",
">X c #F2FCFE",
/* pixels */
"X f I I I f X X X o I I I I > X X X 6 I I I F X X X X j I I I 0 X X X = I I I I + X X X y I I I f X X X X I I I I 1 X X X 1 I I ",
"X f I I I g X X X X F I I I 6 X X X > I I I I o X X X f I I I t X X X O I I I I = X X X f I I I d X X X O I I I I , X X X 1 I I ",
"X f I I I l X X X X f I I I t X X X O I I I I = X X X t I I I f X X X X P I I I ; X X X j I I I 8 X X X = I I I I > X X X 1 I I ",
"X d I I P F = < T  .' t 0 0 7 7 0 0 7 j F I I 7 X X X 6 I I I F X X X X l I I I , : 7 y > O X X k I I P y ; , 7 t 7 ; + o 1 I I ",
"j 7 + o X X F h.[.c.b.#.o X X 7 I I I f X o + 1 d q 7 7 l F F F = = ; , t 8 1 = f I I I o ; 1 , t f F I 1 X X X X F I I I d ; > ",
"I 8 X X X X D &XV.0.v.R.C X X X l I I I = X X o L I I I + X X X f I I I t X X X t I I j S I I + X X X + f 6 + X O I I I I t X X ",
"I t X X X X %.'.c.v.T.].W.t d f j 6 8 y t o X X t I I I 1 X X X 7 I I I k X X X 8 F ; , F 0 6 l d 7 + > I I I l 0 F I I I t X X ",
"I d X + > 7 q.W.v.T._.].R.Q I I I q X X X d f 1 ; I I I d X X X = I I I I o X o 7 O X > + X 1 I I I I t f I I I f X = 8 j 0 X X ",
"6 7 F I I I j./.Y.^.].R.U.` I I I I ; X X = I I L t j I L o X X X F I I I : > F j X ; 6 X X 7 I I I U r * = y I t X X X X 0 l t ",
"X ; I I I I w.$X[.'.!.U.Y.R , = O X 7 P g 6 j I I f X + 7 6 = o X y I I j t I I F + F 1 ; t t ; 7 H G.).G.a X + 7 O X X X t I I ",
"X = I I I I Q :X&X[.!.F.OXZ X X X X = I I I j 0 L I + X X 6 I I l d = o X > I I P f I y P I f X * G.{.+X}.H.2 X d L t + X t I I ",
"X O I F f 7 ; >.:XOX'.OX(.S X X X X o I I I P o + d 7 X o n ) G I L o X X O I I f P S f I I F X m ).+X+X}.).B X f I I I d f I I ",
"7 d = X X X X = h.*X*X#X] P X = 1 8 t 7 t S I = X X ; a a.E.I.9.R P : X X X l F + F > t I I I + N.+X+X}.}.}.`.; g I I I I 1 = 0 ",
"I I o X X X X O I Q ] k 0 > P I I I P X X X > > X X X.^.[.[.[.E.I.+.0 X X X y : X d X 7 I I I 6 B.}.{.}.+X+X`.I 0 F I I I 1 X X ",
"I I O X X X X o j 6 O X X = I I I I j X X X X k 8 X m.^.^.^.[. X Xa.h X X O 1 X X : X ; P 8 + , J.{.{.+X+X}.`.I 1 o 8 L I , X X ",
"I I O X + 6 f L o X X X X 6 I I I I 7 X X X O I I k @.V.Y.W.^.[.$XN.y : 0 F f X + ; X + > X X o C.{.}.+X+X}.`.I 7 X X + t , X X ",
"F d t F I I I L X X X X X f I I I I + X X X 1 I I P @.7.l.F.Y./.[.a.  j I I F X t ; o j > X X X O.}.+X}.}.}.u.L t X X X X t t ; ",
"X X F I I I I j X X X X O P I I I f X X X X f I I P o.4.7.l.F.Y./.p.  t I I P = I ; t I t X X X e @X}._.}.`.a + 7 X X X X f I I ",
"X X L I I I I t X X X O , y 7 , ; f f 0 = + I I I I M } 7.6.C.Y.$.u X 6 I I I j I y I I F X X X X <.).{.'.X.O X + k ; X X f I I ",
"X X I I I I I 8 7 d F I : X X X = I I I I 0 y P I I t . p 8.8.n & X X > I I 8 P F g I I I = + 6 y f B | *.0 X X X F I d % y I I ",
"X O F f 0 > O L I I I S X X X X d I I I L O X O 0 F + X X @ @ d I l t 8 q = + I ; t I I F t I I I P + X X ; , X X f I I I y k I ",
"l l X X X X : I I I I 7 X X X + I I I I 8 X X X X 7 t + X X O P I I I j X X > 7 X q I 0 o ; I I I I 8 X X X F j ; 8 I I I 0 X + ",
"I j X X X X t I I I P O X X X t I I I F O X X X + L I I f , 0 I I I I t X o > X X 1 ; X X X F I I I l X X X t I I j F I I t X X ",
"I t X X X X l I I I t X X X % I I I I 7 X X X X d I I I I F + , t j F 6 1 l > X 6 t X X X X y I I I I ; X X ; I I P + t I f X X ",
"I 8 X X X = I I I I + X X X y I I I S o X X X > I I I I I ; X X X X ; I I L ; j I g X X X X , I F j f 7 > + X F I I ; X = q X X ",
"F 7 ; > > 7 f d d d 7 0 0 e ( &.E y t , > ; = l P I I I 6 X X X X X k I f y I I I l X X = 8 j o X X X = I I S f P I 7 X X = F t ",
"X S I I I ; X X X j I I ,.J.'.oX'.X.I I I I 6 X X X O t S l j f f 6 > O X d I I I f t F I I I = X X X X F I I d + y y X X O I I ",
"X I I I F X X X ; I I ;.K.'.oX'.'.K.I I I j X X X X > I I I I I l o X X X F d 1 O O I I I I I 1 X X X X f I I F X X ; ; X X I I ",
"= I I I t X X X f I I g.!.!.'.oX'.J.I I P + X X X + F I F l j f t 7 0 d f o X X X o I I I I I 8 X X X X t I I I o X O I t + F I ",
"> I I I > X X + I I I d.~.~.~.~.!.m.I I 8 X + , t , % o X X X = I I I I d X X X X X I I I I I t > 7 q t t 0 d L = X X L I L t l ",
"t L I L o X X 0 I I I 2.~.!.~.oXoX<.P l t l I I F X X X X X X 6 I I I I q X X X X = f t 7 > O , I I U -.H O X o t = X F I I ; X ",
"t o : t + X X F I I F m !.~.oXoXK.w O d I I I I 8 X X X X X X 0 I F S g q q d l P I O X X X X ; I U -.f.A.O.s X d I t l I I > X ",
"0 X X t I l 8 f F L t 5 L.'.~.'.2.X + I I I I I 7 7 t j F I I t X X X X q I I I I I ; X X X X O I -.Q.OXOX`...- t I I 7 j I > X ",
"7 X X k I I 1 X X o F I 3.'.'.K.3 X 8 I I j 7 + j I I I I I I f X X X X 1 I I I I I 6 X X X X X F 3.OX'.!.F.x.N 9 I I , X , , X ",
"7 X X P I P O X X , I I J M.B.c X X f d = X X X 0 I I I I I I F X X X X ; ! { [ I I y X X + : 6 D i.`.Y.v.z.z.#.M I I 6 X X j F ",
"7 , + I I f X X X f I I I q $ X o 7 > X X X X X = I I I I I I [ >.r.Q.-X-X&X Xr.l d 7 f L I I I ( u.F.x.z.z.v.s.*.> k 0 X X j I ",
"t I f L I 7 X X o P I I I > O 7 F I 7 X X X X X X j I I P l f D %X].[.$X'.R.v.5.X X X f I I I I ' ..z.z.z.F.!.f.~ ; o , O X f I ",
"t I F + d > X X ; I I I S t L I I I d X X X X X + t , + X X X # %X[.`.R.n.k.z.v.O X X 1 I I I I U B z.v.R.'.OXy.I 7 X > F 6 f I ",
"t I F X X f y 7 7 y 8 ; X k I I I I L o X = 0 l I I ; X X X X O -X$XR.x.k.z.F.!.# X X o L I I I I Z ..!.[.OXL.*.I f X + I I 7 7 ",
"t F F X X f I I f X X X X f I I I I L 8 k I I I I I f X X X X o $X XD.k.z.F.`.W.* X X X t I I P S y V ,.Z.y.( > 7 d o X L I 7 X ",
"0 o 7 X X d I I j X X X X q I I j 6 o > I I I I I I I > X X X X S.].n.v.F.`.!.V.3 X O > t 6 = o X X j U ^ ' I O X X d 1 k I 8 X ",
"t X X j > t I I F X X X X 6 8 + X X X X l I I I I I I l X X X + e.E.D.R.`.!.D.D.' L I I I ; X X X X 6 I I I I 1 X X t I y F q X ",
"t X X F I d t k S ; 7 t F F X X X X X X 6 I I I I I l t 7 l L I y.].!.`.R.x.x.p._ I I I I d X X X X + I I I I d X X , I t o 1 ; ",
"0 O X j I f X X X F I I I I ; X X X X X o F S t 1 + X X + L I I ^ <.-.Y # X X X > I I I I P O X X X X j I I I F X X O I f X , I ",
"6 L 0 f I S X X X j I I I I 8 X X X o > t t X X X X X X X 7 I I I I I I 7 X X X X S I I I I 6 X X X + 0 d t 8 7 t t 1 l F X > I ",
"1 I I 0 t F o X X t I I I I j = 7 f L I I P + X X X X X X o F I I I I I F X X X X 7 I I F f 8 y j L I j X X X X d I I 6 8 o ; I ",
", I I 0 X O t 7 , 7 j f t , + F I I I I I I 0 X X X X X X X 7 I P l g f d 6 7 0 t j ; o X X o L I I I P X X X X 8 I I t X f 1 I ",
"6 I I t X X f I I F $ O X X X y I I I I I I F o X X X O > 7 f > o X X X X , I I I I , X X X X f I I I I + X X X 1 I I f X k F ; ",
"j % q y X X t I :.P.Z.,.3 X X 1 I I I I I I l 7 t f F I I I I 0 X X X X X O P I I I t X X X X t I I I I ; X X X : I I j X f F X ",
"j X X : t = 7 ` =X;X;X;XJ.2 X O I S d 7 ; O X > I I I I I I I F X X X X X X j I I I l X X X X 7 P l f 0 t j F L j X = 6 , d L X ",
"j X X ; I I g t.;X;X;X;X>XR t j : X X X X X X o L I I I I I I I ; X X X X X y I I I F ; 6 t f q X X X X l I I I d X X > I f F X ",
"j X X = I I A s.;X;X;X>X;X1.I I 6 X X X X X X X f I I I I I I I 8 : 6 0 r b =.%.s % + I I I I 7 X X X O I I I I 6 X X 8 I > = t ",
"> q = = I I J Q.;X;X>X;X>X^ I I t X X X X X X X 0 P l f 0 1 ; O t I I K f.%X%X%XXX9.w I I I I ; X X X , I I I I O X X j I ; O I ",
": I I j d P K =X>X>X;X>X-X~ I I d X X O ; 6 t f t X X X X X X X g I I g.%X%X%XXX.X|.t.I I I F X X X X f P F l f = O + I I o + I ",
": I I L X O v >X;X;X;X;XQ.Z d t q j F I I I I I t X X X X X X X F I / }.%X%XXX.X|.XX[.W I I g 7 t f f + X X X l I I t 7 d X % I ",
"; I I P X X V ;X>X;X;X;Xd.o X X ; I I I I I I I 0 X X X X X X ; I F R %X%XXX.X|..X%X%Xz O o F I I I 6 X X X 1 I I I = X 6 F q j ",
"t d F I O X 2.>X;X;X;X;Xu.X X X + I I I I I I I 7 X + , 7 t g 7 o X i %X%X.X.X.X%X%X%X4 X 7 I I I F o X X o F I I f X X f I f X ",
"F X X = 8 ; i.;X;X;X;X;XB X X X o I I F k d 0 1 f L I I I I I + X X & B..X.X|.%X%X%XB.& O F I I I , X X X 7 I I I : X o L I y X ",
"F X X X f I <.A.Q.;X;X;Xx 1 7 t f , O X X X X X F I I I I I d X X X X m ].|.XX%X%X'.c X 0 I I I j X X X O F I I l X X > I I 0 X ",
"I X X X q I I A * 2 e E U I I I I > X X X X X o I I I I I I ; X X X X f &.N.'.~.p.z ; > 0 1 ; ; l L I I 0 X X + d t 7 0 l P 6 X ",
"q , = O 1 I I I + X X + I I I I I 7 X X X X X = F k f t 0 t d f j l y + + + * G I I I 6 X X X 6 I I I F o X X = I I I + X X d j ",
"X F I I l ; 1 t 1 ; + O f L F l j 0 7 q y g F y X X X X X d I I I I ; X X X 8 I I I S o X X O F I I I 6 X X X y I I l X X X F I ",
"X F I I I o X X > I I I f X X X X ; I I I I I 0 X X X X + I I I I d X X X + L I I I , X X X 7 I I I F o X X + P I I q X X X I I ",
"X l I I I = X X o P I I I + X X X O I I I I I 1 X X X X 8 I I I I % X X X t I I I j X X X o F I I I 6 X X X 0 I I I : X X + I I "
};
