/* XPM */
static char *_0f8195f04e543fcb814303c58015e85oCcxslmC67ik1aVb[] = {
/* columns rows colors chars-per-pixel */
"64 64 207 2 ",
"   c #69137B",
".  c #6D1A7F",
"X  c #661478",
"o  c #6B287A",
"O  c #6E1981",
"+  c #721D85",
"@  c #732285",
"#  c #762289",
"$  c #79268D",
"%  c #7B288F",
"&  c #742B86",
"*  c #773088",
"=  c #7C3C89",
"-  c #743F83",
";  c #7E2B92",
":  c #7F3490",
">  c #7F4994",
",  c #812E95",
"<  c #823197",
"1  c #843C97",
"2  c #85349A",
"3  c #88379D",
"4  c #89389E",
"5  c #8D3CA3",
"6  c #903FA5",
"7  c #834196",
"8  c #87469B",
"9  c #8D5C98",
"0  c #945F9F",
"q  c #93649E",
"w  c #8F40A6",
"e  c #9040A6",
"r  c #9445AA",
"t  c #9748AE",
"y  c #9849AF",
"u  c #8A53A0",
"i  c #9354A6",
"p  c #9951AE",
"a  c #9658A9",
"s  c #9A59AD",
"d  c #915FA3",
"f  c #9B4CB2",
"g  c #9E51B6",
"h  c #9D5DB4",
"j  c #A052B7",
"k  c #A255BA",
"l  c #A559BE",
"z  c #9767A4",
"x  c #9879A5",
"c  c #9E62B3",
"v  c #A177AC",
"b  c #A56DB6",
"n  c #A76ABC",
"m  c #AD7BBD",
"M  c #A07DB2",
"N  c #A75BC0",
"B  c #AA5DC2",
"V  c #AD61C6",
"C  c #AF64C8",
"Z  c #AD6AC4",
"A  c #B166CA",
"S  c #B46ACD",
"D  c #AB72C1",
"F  c #AB7CC1",
"G  c #B076C7",
"H  c #B37BC6",
"J  c #B572CC",
"K  c #B876CF",
"L  c #B87DCF",
"P  c #B47FCC",
"I  c #B76DD1",
"U  c #B771D0",
"Y  c #B872D1",
"T  c #B979D2",
"R  c #B67CD0",
"E  c #988FAD",
"W  c #9C83B1",
"Q  c #9A9FB6",
"!  c #A688AD",
"~  c #AC8DB3",
"^  c #AA82B8",
"/  c #AB91B6",
"(  c #AC9DBC",
")  c #AA98B7",
"_  c #B49ABC",
"`  c #9FA9BF",
"'  c #AAA0BE",
"]  c #B9A7BF",
"[  c #AD86C3",
"{  c #AB8AC2",
"}  c #A68BC0",
"|  c #B58CC3",
" . c #B889C7",
".. c #B585CA",
"X. c #BA85CE",
"o. c #B58FCF",
"O. c #BA8CCE",
"+. c #B683C7",
"@. c #A894C1",
"#. c #B595C2",
"$. c #B694CD",
"%. c #B49CCA",
"&. c #B899C5",
"*. c #BB83D3",
"=. c #BD8AD2",
"-. c #BD9DD3",
";. c #BA99D6",
":. c #AFA7C2",
">. c #A3AEC3",
",. c #B6A1C2",
"<. c #B5ADC4",
"1. c #B3ADC9",
"2. c #B9ABCF",
"3. c #BAA9C4",
"4. c #ACB3C6",
"5. c #B5B3CB",
"6. c #BAB3CC",
"7. c #B3BBCE",
"8. c #BCBACC",
"9. c #BFA9D4",
"0. c #BABFDA",
"q. c #C194D9",
"w. c #C49CD8",
"e. c #C4A9CC",
"r. c #C8BACB",
"t. c #C4ADD6",
"y. c #C4A7D9",
"u. c #C3B1D3",
"i. c #C1BBD3",
"p. c #C9B9D6",
"a. c #CFA8E3",
"s. c #C9B9E5",
"d. c #D6B7E7",
"f. c #AFC4CF",
"g. c #B3C7D2",
"h. c #B6C9D4",
"j. c #BDCDD6",
"k. c #BCCED9",
"l. c #BDC6DF",
"z. c #BFD1DB",
"x. c #C3C3CD",
"c. c #C5C6D5",
"v. c #CBC3DC",
"b. c #C5CBDB",
"n. c #CACBDA",
"m. c #C5C9D4",
"M. c #D3C6D3",
"N. c #D4CADB",
"B. c #D5C9D3",
"V. c #C2D2DB",
"C. c #CBD3DD",
"Z. c #C9DBDD",
"A. c #D3D6DC",
"S. c #DBD3D8",
"D. c #D3D9DE",
"F. c #D9D3D7",
"G. c #E0DADD",
"H. c #C5CAE5",
"J. c #CDCDE9",
"K. c #CFC3E1",
"L. c #CBD2E0",
"P. c #CCDAE2",
"I. c #C9D6EA",
"U. c #D1D4E2",
"Y. c #D3DCE4",
"T. c #DADDE1",
"R. c #D7DDEC",
"E. c #D9DFEE",
"W. c #CCDCF1",
"Q. c #D7C4E6",
"!. c #CDE3E8",
"~. c #D5E3E6",
"^. c #DCE2E7",
"/. c #D4E2EC",
"(. c #DCE3EB",
"). c #D6E8EB",
"_. c #DAEAEA",
"`. c #DDECEC",
"'. c #D1E9E7",
"]. c #CEE5F6",
"[. c #CFE7F8",
"{. c #CEEAF3",
"}. c #DCE6F1",
"|. c #D2EBF3",
" X c #D6ECF3",
".X c #D3EAF7",
"XX c #DDEEF3",
"oX c #DCECF2",
"OX c #D4ECFA",
"+X c #D2E2F3",
"@X c #DAF2FC",
"#X c #E3E4E6",
"$X c #E2E6ED",
"%X c #E2EDED",
"&X c #E3EAEE",
"*X c #ECECED",
"=X c #E9E5E4",
"-X c #F3EFED",
";X c #F4F1EE",
":X c #E0E3F0",
">X c #E0EFF3",
",X c #E4EAF1",
"<X c #EFEFF0",
"1X c gray94",
"2X c #FCF8F5",
"3X c #FCF8F5",
"4X c #F8F4F2",
/* pixels */
"        I I I I         S I I I         S I I I .       S I I I         S I I I       . I I I S       . I I I S         I I I I ",
"        I I I I +       B I I I #       B I I I @       V I I I +       V I I I       + I I I V       + I I I S         I I I I ",
"        I I I I $       y I I I 3       t I I I <       k I I I %       l I I I O     $ V k k f ; ; $ < I I I C         I I I I ",
"    + + B l k f 5 5 e r f , ; ; ; k k k g 5 y k e       r L K.(.Y.) &   y I S l 5 f B f       t I I I t + $ ; 5 e 4 , $ A I I I ",
"I I I I +       5 I I I I +       r I I I $     + I V l h U.>X>XoX|.6.e e #     l I I t , e e , 5 r f ;       , I I I A         ",
"I I I I #       1 u.Z.i.T t   O @ ; B C I k       k I I O.>X>XXX|. XXXL l       g I f k I B e $     + S k 5 # 5 I I I C         ",
"I I I I ;     . 1.'.%X`.#.; B I I I k   . % < $   < I I w.>XXX X|.>X>XX.S       5 ;   r #   V I S f 6 I I I I e 4 j S V         ",
"S A B k 5 r j -._.%X%X_.j.@ 5 I I I I <     $ I V e B I X.XX X{.XX>X(.K I $   5 e   $ +     I I I I 5 # t S I ;       < e < # O ",
"        t I I v.`.).`.%X~.* O B f e e 5 f 5 # g I I 5 # e 2.{.XX>XoXy.I I r B I f + V   + 5 r j S I <     + r #       $ I I I I ",
"        e I I P.'._.%X%X~.l S ,         N I I B f I V       [ s.y.b r 4 # , I I l k A 4 S I .     < ,     .   B 5 .   ; I I I I ",
"        5 I J P.`.%X%X`.v.I I t         f I I I O # l $     5 I I I %     O I I g I j I I I #       t k ~ =XS.G.&.A e 3 I I I I ",
". # ; 5 e # . n.%X).`._.-.I I g   + ; 3 e f V I ;     ; .   # I I I e       B V + S + A I I 3       5 I F.2X2X2XF.I I j ; r l S ",
"I I I I f     ! !.).`.v.U V t 5 A I I I 2     ; ,     # C 2   V I I N       t # O r   l I I g .     ; I M.2X2X2Xe.I I f         ",
"I I I I g     O W 8.#.8 +     2 I I I I #       g r     S I B g S I I O   + 3   . +   t l ;   A V r ;  .-X2X2X2XM.k I f         ",
"I I I I g   % e l I $         y I I I V         A I B $ B I I f O 2 e 5 g S k   <     <       t I I I ^ 2X2X2X2X=X@ ; e         ",
"S B j e 5 S I I I I +         C I I I 5       % I I I S f I I B       5 I I V   B   ; V       $ I I I m ;X2X2X2Xr.    < B 5 +   ",
"        , I I I I A         ; I I I A #       f I I I S   , A A       ; I I S 3 I # S I #       B I I #.4X2X2X2X!     < I I I I ",
"        , I I I I j   . % 5 < ; @   , I B t < S I I I f     O f       + I I C A S B I I 5       5 S I N.2X2X2X2XF.;   , I I I I ",
"        2 I S l t f B I I A         l I I I 5 O 6 A I ;       . l 2 + . I g # I 5 B I I N < f A A . + 0 _ ] r.B.p.I l 5 I I I I ",
"  O # < 2 #       B I I I r       % I I I C         e #       , I I I C .   $ g   l I l # V I I I 2     + l ;   S I I l @ e l A ",
"I I I I 4       + I I I I #       j I I I 5         B I k <   k I I I V     ; O   f 3     t I I I l       l I f N I I V         ",
"I I I I ;       5 I I I j       $ I I I V         5 I I I I f 5 j A I f @ ( n.A.1.7       , I I I I +     5 I I r t I S         ",
"I I I I #       k I I I ;       j I I I <       + S I I I V O       + l %.T.T.*X$X' .     . S I I A 5     # I I k   # g .       ",
"I I I I O + + # B l k k ; ; ; ; k k k l $ + O   k I I I S $         2 T C.#X*X<X1XC.7   # 4 5 #     $ I B r V I A       j e % O ",
"      + I I I f       f I I I ;       j I I I y   O + # f j f f f 5 ; u T.*X*X*X*X#X^ V I I 5         A I I 2 < V +     l I I I ",
"      ; I I I ,     + S I T w.7 O   ; I I I C O       < I I I I I #   > T.*X*X*X*X$X$.I I I f         j I I t     <     g I I I ",
"      4 I I S .     e I I q.}.}.,X:XQ.d.a.*.<       # A V k f t f e e c D.*X*X*X*X#Xo.I I I N         r I I l     e B ; f I I I ",
"      e I I g       A I I -.}./.(.`.(././.2.  # 4 f $           k I I U 8.A.#X#X$XC.R I S B f 5 r f g r 3 t l     4 I I y f B I ",
"S V g r N I 3     < I I I 9.,X(.Y.P.z.h.k.@.V I I k             A I I I F m.*X*XA.{ 2 #       S I I I f       j # < I I e       ",
"I I I ;   O f 3 O l I I B v.,XP.k.g.f.h.V.$.I I I 3     + ; 2 2 f f y e e ..9.t.$.B           V I I I k       A S f S I e       ",
"I I I $   + I I B $ < w f :X/.V.f.g.k.Z.U.O.I I I g N S I I I I O       < I I I I S           j I I I C       l I l @ j e       ",
"I I I #   < I I 5     O T /.I.z.k.Z.Y.Y.C.D 5 +   y I I I I I I %       + I I I I I $         5 C l j f , #   f I B     3 5 $ O ",
"  + 3 ;   5 I I #     4 q./.P.Z.Y.~.Y.C.5.@       < I I I I I I 5         V I I I I 5 , e g B k         f I S k C A     5 I I I ",
"      N f f I A       k *.p.n.c.C.C.V.V.:.          A I I I I I B   O + ; r 5 < #   $ I I I I U q x 9   2 I I l . 5 O   5 I I I ",
"      N I e k k       S I S J i F [ %.u.x           e y 5 , +     l I I I V           V I I *.T.(.$X$XT.z I I S     k 3 5 I I I ",
"      l I 5   < e 3 ; l t < O S I I S S <     , f A A O           < I I I I ;         5 I I v.(.$X,X&X$XT.Z I I ;   g I g e l A ",
"I V t k I 5   , I I V         V I I I I f r A I I I I e             B I I I k         + S K ^.(.(.&X,X&X$Xc 4 r 3   e I f       ",
"I I I ; , 3   ; I I C         k I S y $   A I I I I I S +           < I I I I $   . $ < r z (.(.(.(.(.(.N.B     $ f 4 I j       ",
"I I I ;   2 f ; I I S         5 2 .       e I I I I I I f     . # % , g r 5 2 < V I I I k z (.(.$X$X$X(.=.I +     S B g l       ",
"I I I ,   , I S , e f < 5 f C j           + S I I I B y 2 y A I I I I g         B I I I I v ,X,X,X&X$Xt.I I 4     j S   % 4 $ O ",
"  + , 3 O $ I I +     k I I I S             t k 4 +       % I I I I I I $       < I I I I m (.$X$X$Xu.I I I g     5 I + O I I I ",
"      f S r S I %     t I I I I ;     + 3 f l               g I I I I I f         A I I I S T.$X^.&.e 3 ; $ # V j t C ;   I I I ",
"      t I S O e <     3 I I I V e t B I I I I ,             # I I I I I I +       e V g e < b t.=.I V         V I C . <   S I I ",
"      r I I O   5 V k f 2 ; O   + I I I I I I l             O f y 5 < , ; 4 k l V N         5 I I I I O       j I I O 5 B f B A ",
"S V j t V I @   , I I I           l I I I I I I $ O 1 } H.J.=.B           + I I I I +       ; I I I I $       f I I # 3 I +     ",
"I I I 5   % <   # I I I $         e I I S l t < 4 I J.[.[.@X+XT %           V I I I 2       + I I I V 4 , 3 5 e r k ; < I @     ",
"I I I 5     j C t l G S 2   . # , e < #         . *.[.[.OX@XOXy.t           f I I I e   O % 4 3 % O   l I I I 2     j f I #     ",
"I I I 5     f S ..6.l.W i A I I I A               D [.[.OXOXOXs.B   # < 4 5 r r w 3 e C I I B         A I I I #     A f ; 3 #   ",
"  + ; 5 #   p u.R.E.R.I.0.[ S I I I +             r W.[.@XOX[.H., S I I I I <       e I I I f       % I I I V     # I r   B I I ",
"      e I N s U.Y.R.(.}.R.5.A I I I $     O $ 3 r r W.OX@XOX[.W.< I I I I I @       l I I I <       p | | H e     e I 3   V I I ",
"      e I I i 7.C.L.Y.(.:Xi.k k f e y l A I I I I n ].@XOXOX[.[.h I I I I V       O I I I S 3 e g b ! <.5.( | J V 2 g $   C I I ",
"      5 I I a ` 7.b.L.Y.(.] X       f I I I I I I -.[.@XOX[.[.[.P A l j f t 2 3 5 2 $ .   e I I I / b.L.L.L.n.| j   . A t g V S ",
"S V l t y V s Q >.7.b.C.Y./ X       e I I I I I I o.OX@XOX[.[.I.@       . A I I S O     O S I I H <.L.L.L.Y._.3.,   ; I S       ",
"I I I t     , d E 4.7.c./ o         4 V k t 4 ; + k J..X.X].s.s         5 I I I 5       t I I I a <.L.P.~.`.`.x.@   t I B       ",
"I I I f     # I Z M x - < 5 y j N V g             V I Y Y I I #       + S I I V       + S I S B : ( Y._.`.`.`.x.=   V I k       ",
"I I I j       I I S +     3 I I I I B             I I I I I g . + # $ 5 k k f f 5 e f , +     g I ,._.`.`.`.~.n.^ t 5 f r # + . ",
"  + # < f 5 < l S I 4     O S I I I I     O # ; 2 e 3 ; # O k I I I l       # I I I l       ; I I #.`.`._.Y.L.L.#.e     e I I I ",
"      # I I I ,   O < g f r t 5 3 < ; g A I I I f         # I I I I $       k I I I %       l I I +.D._.Y.L.L.L.,.%     f I I I ",
"      + I I I 5       S I I l         f I I I I 5         t I I I g       ; I I I k       ; I I I n 8.P.L.L.L.n.,..     k I I I ",
"      O I I I f       j I I I @       e I I I I <         V V V V , + + + f V B l 5 < 2 2 5 f f f p ( i.6._ ~ / p # + . B I I I ",
"I I I S   + # < g f f r 2 4 5 4 e t f t < ; $ # k V V A j       $ I I I l       $ I I I l       $ I I +.b = @   r I I I O       ",
"I I I S       # I I I k       , I I I l         V I I I 5       r I I I 5       e I I I 4       t I I I 4       k I I I         ",
"I I I I       O I I I V       @ I I I V         S I I I %       N I I I #       l I I I #       B I I I #       V I I I         ",
"I I I I       . I I I S       O I I I S         I I I I O       S I I I .       S I I I         S I I I         S I I I         "
};
