/* XPM */
static char *b87a0a240bec45cacf8c7adfc8e58390SE6wp7eFdYhDnkqK[] = {
/* columns rows colors chars-per-pixel */
"64 64 223 2 ",
"   c #69137B",
".  c #6B1B7C",
"X  c #671778",
"o  c #5F3268",
"O  c #6D3979",
"+  c #72397F",
"@  c #672475",
"#  c #58485B",
"$  c #545454",
"%  c #5A565B",
"&  c #5C595D",
"*  c #5F5A60",
"=  c #66466D",
"-  c #625C64",
";  c #675E69",
":  c #675B6A",
">  c #72487B",
",  c #6C5873",
"<  c #74597B",
"1  c #666168",
"2  c #6B636D",
"3  c #69646A",
"4  c #6E6570",
"5  c #716773",
"6  c #736A75",
"7  c #766C79",
"8  c #796C7C",
"9  c #78647D",
"0  c #7B727E",
"q  c #7D797E",
"w  c #6E1981",
"e  c #721D85",
"r  c #722184",
"t  c #762289",
"y  c #79268D",
"u  c #7B288F",
"i  c #752B86",
"p  c #7A348B",
"a  c #7C3C8B",
"s  c #783588",
"d  c #7E2B92",
"f  c #7E3A91",
"g  c #6F2180",
"h  c #7C5985",
"j  c #7C478B",
"k  c #7D6C82",
"l  c #7D6582",
"z  c #7E7481",
"x  c #812E95",
"c  c #823097",
"v  c #85349A",
"b  c #88379D",
"n  c #89399F",
"m  c #853A98",
"M  c #8D3DA3",
"N  c #903FA6",
"B  c #80458E",
"V  c #82578C",
"C  c #834494",
"Z  c #874998",
"A  c #8E5B9C",
"S  c #8A5898",
"D  c #925D9E",
"F  c #84688C",
"G  c #817683",
"H  c #837A86",
"J  c #85748A",
"K  c #867D89",
"L  c #897D8C",
"P  c #8D6199",
"I  c #876393",
"U  c #926A9C",
"Y  c #8C7495",
"T  c #93759C",
"R  c #8E43A3",
"E  c #9041A6",
"W  c #9445AA",
"Q  c #9748AE",
"!  c #984AAE",
"~  c #924AA6",
"^  c #9655AA",
"/  c #9B4DB2",
"(  c #9E51B6",
")  c #9F5CB5",
"_  c #A052B7",
"`  c #A255BA",
"'  c #A659BE",
"]  c #946AA7",
"[  c #9B6BAB",
"{  c #9565A6",
"}  c #9C74AA",
"|  c #9C79A9",
" . c #9D68B2",
".. c #9F7CB5",
"X. c #A176AF",
"o. c #A66ABB",
"O. c #A467B8",
"+. c #A27CB3",
"@. c #A476B8",
"#. c #A75BC0",
"$. c #AA5EC2",
"%. c #AD61C5",
"&. c #AD6AC5",
"*. c #AF64C8",
"=. c #B166CA",
"-. c #B46ACD",
";. c #AC76C3",
":. c #B674CD",
">. c #B67CCA",
",. c #B97CCD",
"<. c #B76DD1",
"1. c #B974D1",
"2. c #B975D2",
"3. c #8B838D",
"4. c #8E898F",
"5. c #868287",
"6. c #8D8690",
"7. c #8F8991",
"8. c #918C93",
"9. c #958798",
"0. c #959395",
"q. c #9A969A",
"w. c #9C999D",
"e. c #979598",
"r. c #9D87A3",
"t. c #9F99A1",
"y. c #9D8AB0",
"u. c #A39DA4",
"i. c #AA9CAD",
"p. c #A697A9",
"a. c #A888B7",
"s. c #B288BF",
"d. c #AA98B7",
"f. c #B29ABB",
"g. c #A286AB",
"h. c #9DA7BC",
"j. c #A6A0A8",
"k. c #ABA3AD",
"l. c #A4A0A5",
"z. c #ACA7B3",
"x. c #B6ADB9",
"c. c #B9AEBC",
"v. c #B2A7B7",
"b. c #BBB2BD",
"n. c #AD87C3",
"m. c #B284C3",
"M. c #B887CC",
"N. c #B59CC4",
"B. c #B795C9",
"V. c #BB87D3",
"C. c #BD99D5",
"Z. c #AE9FCB",
"A. c #A8ADC5",
"S. c #B7A9C5",
"D. c #BEB4C1",
"F. c #BBB5CB",
"G. c #B9BBCD",
"H. c #B7BED5",
"J. c #B4B3CF",
"K. c #C18ED3",
"L. c #C19AD5",
"P. c #C0B6C3",
"I. c #C4BAC7",
"U. c #C5BCCA",
"Y. c #C9BECB",
"T. c #C7A8D4",
"R. c #C2B3D4",
"E. c #C8BADA",
"W. c #C5A8CB",
"Q. c #CBB0E5",
"!. c #BACBD5",
"~. c #B8C5D3",
"^. c #B4C9D3",
"/. c #CCC3CE",
"(. c #C4C4CE",
"). c #C5C5D4",
"_. c #CEC5D1",
"`. c #CBCCDB",
"'. c #C8C8DB",
"]. c #D2CCD3",
"[. c #D9CADA",
"{. c #C6D4DB",
"}. c #D6D2D7",
"|. c #D5D5DB",
" X c #D9D9D9",
".X c #D7D7DA",
"XX c #E1DCDD",
"oX c #CAC6E8",
"OX c #CBD2E0",
"+X c #CDDAE3",
"@X c #CAD8E7",
"#X c #D3DCE4",
"$X c #D5DCEA",
"%X c #D9DDEB",
"&X c #D8DBE2",
"*X c #D3C9E1",
"=X c #E4DDE1",
"-X c #CBE2E7",
";X c #DCE2E5",
":X c #D5E4E9",
">X c #DCE3EB",
",X c #DDECEC",
"<X c #D4E4E7",
"1X c #CEE4F6",
"2X c #CEE8F6",
"3X c #D4EBF3",
"4X c #DCECF2",
"5X c #D4ECF9",
"6X c #D7E3F1",
"7X c #D8F0FB",
"8X c #E4E3E5",
"9X c #EBE7E6",
"0X c #E2E6EE",
"qX c #E3EBEE",
"wX c #EBEBEC",
"eX c #F2EEEC",
"rX c #E0EFF3",
"tX c #E5EBF2",
"yX c #E4E8F2",
"uX c #FCF8F5",
"iX c #FCF8F5",
"pX c #F1F1F1",
"aX c #EBF1F7",
/* pixels */
"        <.<.<.<.        -.<.<.<.        -.<.<.<..       -.<.<.<.        -.<.<.<.      . <.<.<.-.      . <.<.<.-.        <.<.<.<.",
"        <.<.<.<.e       $.<.<.<.t       $.<.<.<.r       %.<.<.<.e       %.<.<.<.      e <.<.<.%.      e <.<.<.-.        <.<.<.<.",
"        <.<.<.<.y       Q <.<.<.b       Q <.<.<.x       ` <.<.<.u       ' <.<.<.w     y =.%.%.( e e e d <.<.<.*.        <.<.<.<.",
"        *.$.&.E.R.f.^ W / v v v c / / Q / Q ` $.E       W <.<.<.n       ! <.<.%.n / $./       Q <.<.<.Q e y c M n x y t =.<.<.<.",
"<.<.<.<.e a #XrXrX4X:XM.<.e       / <.<.<.t     t %.' ( ! M E E M E E E E u w   ' <.<.W x E E x M Q ' d       d :.:.<.=.        ",
"<.<.<.<.t S.rXrX4X3X4X'.<.Q   w r d $.*.<.(       ' <.<.=.      e <.<.<.'       ( :.o.o.>.$.E y     e -.` M t D 9X8X=XY..       ",
"<.<.<.<.d ).rX4X3X3XrX`.c u $.<.<.<.`   . u v C f ~ <.<.<.y       %.<.<.-.      ~ | r.F.| B %.<.-./ M <.<.<.<.s.uXuXuX9Xi       ",
"-.=.$.` n E.4X3X3XrXrXF.    M <.<.<.<.c   . d.`.&X'.M.<.<.E       Q <.<.<.y   c X.G.OXOXOXv.m.<.<.<.M t Q -.<.a.uXuXuX}.v y w . ",
"        Q V.3X2X4XrX4XS     w $./ E E M / y.&X&XwXwXG.Z ! `       c <.<.<.W ` :.S.OXOXOX#X:Xf._ -.<.c     e ^ XXuXuXuX9X,.<.<.<.",
"        E <.C.OX$X`.{ d N ` -.x         %.'.8X9XwXpX X]     ` _ W M W n t x <.>.U.OX+X#X:X,XD..   c x       a eXuXuXuXuXB.<.<.<.",
"        M <.=.( M d -.<.<.<.<.Q         ( |.wXwXwXwXwX..    M <.<.<.u     w <.:.S.+X<X,X,X,X(.s     ! ` y      XuXuXuX8X,.<.<.<.",
". t d M E t         =.<.<.<.<.(   e d b ^ |.wXwXwXwXwXa.w   t <.<.<.E       %.=.g.:X,X,X,X:X).S     M <.<./ C 9XuXuXuX}.c W ' -.",
"<.<.<.<./           $.<.<.%.Q M =.<.<.<.R `.wXwXwXwXwX..*.v   %.<.<.#.      / d U ,X,X,X:X+XOXU     x <.<.<.B.uXuXuXuXeXs       ",
"<.<.<.<.(         w Q b e     v <.<.<.<.y d.}.8X8X8X|.j -.<.$.( -.<.<.w   w c   C |.,X#X+XOXOXf.` M t <.<.<.>.} a.W.[./.r       ",
"<.<.<.<.(   y E ' <.y         ! <.<.<.*.  s F.wXwX|.B.y $.<.<.! w v W n Q =._   Z (.#X+XOXOXOXS.:.<.<.E $.<.<.e     d E         ",
"<.-.$./ E %.<.<.<.<.e         *.<.<.<.E     p +.C.V.<.-./ <.<.$.      M <.<.%.  O.d.OX'.F.S.p.A <.<.<.M   b =.d       c $.M e   ",
"      s O P } N.- % i.9 # 9.l , m.<.=.t       / <.<.<.-.  x =.=.      d <.<.-.c <.Z B.B.U a r   $.<.<.#.    w x       c <.<.<.<.",
"# # 7.c.$ $ 0 P.$ $ u.G $ e.3.$ p.$ J o.) W d -.<.<.<./     w /       e <.<.*.*.-.$.<.<.M       M -.<.<.e     b $.d   x <.<.<.<.",
"$ $ 4.D.$ $ 6 I.$ $ u.6.$ 0.3.$ p.$ 8.1 9.o.R t / -.<.d       . ' v e . <.( t <.M $.<.<.' x / =.=.. e M c     y <.<.' M <.<.<.<.",
"$ $ 3.U.$ $ ; P.$ $ w.8.$ 7.4.$ p.$ 8.4 0.- P X   e Q w       x <.<.<.$.e   y (   ' <.' t %.<.<.<.v     t / t   -.<.<.' p < < , ",
"$ $ 4._.$ $ - I.$ $ e.8.$ 3.0.$ u.$ 4.6 8.1 r.8 w   ' -./ y   ` <.<.<.%.    y .   / M     Q <.<.<.'       $.-.E ' <.<.%.S $ $ $ ",
"$ $ 3.].$ $ % /.$ $ 0.0.$ K e.$ w.% 3.0 8.; r.H 8 ^ <.<.<.<.Q W $.<.<./   c c   y x       x <.<.<.<.e     E <.<.Q ( <.-.a.$ $ $ ",
"$ $ K }.$ $ $ /.$ $ 8.e.$ G w.$ e.- K z K 2 r.0 8 3.>.<.<.=.e     w y ( :.Q.n.@.2.M       . -.<.<.=.M     y <.<.(   d #./.$ $ $ ",
"$ $ G }.$ $ $ ].$ $ 7.w.$ z u.$ 0.1 z H H 5 r.8 0 4.9.1.-.d         d <.L.4X:X4XtXaX*XN.[ M M t     y <.$.W %.<.=.    p  X$ $ $ ",
"$ $ 5  X$ $ $ ].$ $ K j.$ H z.$ 4.; 6 H K z i.7 7 H J l / ` / / W b c x ..4X:X>X>X:X#X@XJ.-.M         =.<.<.v c I # $ 8  X- $ $ ",
"$ $ 2  X& $ $ ].$ $ H k.$ 0 z.$ 3.2 5 4.H H p.4 6 H J J F 1.<.<.<.d     N.tX>X+X{.!.^.!.Z.<./         _ <.<.Q   k $ $ 5  X2 $ $ ",
"$ $ ;  X- $ $ /.% $ K x.$ 7 z.$ K 5 5 7.z +.B . O < J L 7 ] / Q Q b M Q %X4X+X!.^.^.!.{.B.<.'         W <.<.'   0.$ $ 2  X6 $ $ ",
"$ $ -  X2 $ $ I.- $ H b.$ 2 x.$ G 7 2 M.&.`   w x E h 9 ; 9     ( <.<.1.yX#X!.^.!.{.+X#XM.-.` c E / ( W b Q ' p w.$ $ 2  X6 $ $ ",
"$ $ *  X4 $ $ P.- $ 0 D.$ - c.$ 0 X. .<.<.` $.<.<.'   > 2 4 a   =.<.<.V.$XOX{.{.+X<X#X).a     -.<.<.<./     . s.u.$ $ 1  X6 $ $ ",
"$ $ %  X2 $ $ D.2 $ 7 U.$ & D.# > W u   v <.<.<.<.n   . , 5 k u ` ( / m.6X+X+X<X#X#X{.A.g     %.<.<.<.` + $ $ 7.z.$ $ &  X0 $ $ ",
"$ $ $ .X6 $ $ P.0 $ 2 I.$ % W.%.d       #.<.<.<.<./ ( %.] 0 5.o.w     i +.R.'.'.!.!.{.S.      _ <.<.<.*.T $ $ 3.x.$ $ $  XG $ $ ",
"$ $ $ }.7 $ $ b.z $ - I.$ $ K.%.      e <.%.M e   ! <.<.<.Y H J u       e -.-.:.;.m.} S       M *.' _ / c.$ $ K D.$ $ $ ].3.$ $ ",
"$ $ $ ].0 $ $ x.0 $ * _.{ { <.E       d d   C ] a c <.<.<.;.q 0 Z         %.<.<.<.<.M x E ( $.`   @ o > _.$ $ z I.$ $ $ /.8.$ $ ",
"$ $ $ _.L $ $ z.z $ % T.<.<.<.y   y _ $.  A {.,X,XS.-.<.<.<.Y 5.F   w e d W M c t   y <.<.<.<.<.w k $ ; ].$ $ 7 P.$ $ $ Y.0.$ $ ",
"$ $ $ /.6.$ $ j.H $ $ K.<.<.-.b ' <.<.-.i {.,XqX,X-Xo./ M x + 5.J P <.<.<.%.          %.<.<.<.<.~ w.$ - ].$ $ 6 I.$ $ $ I.e.$ $ ",
"$ $ $ U.8.$ $ w.9., = O.Q c w -.<.<.<.<.a.,X,X,X,X,XB.        k H 9 o.<.<.<.d         M <.<.o.I | u.$ % }.$ $ 2 /.$ $ $ U.w.$ $ ",
"$ $ $ I.8.$ $ e.V.<.%.        %.<.<.<.<.R.<X:X,XqX,XL.M       O H 2 U =.<.<.`         w -.<.r.$ K k.$ $  X$ $ - ].$ $ $ P.u.$ $ ",
"$ $ $ b.0.$ $ 0.1.<.*.        ` <.-.! y J.,XqXqXqX<X2.=.w       9 2 4 } -.<.<.t   . y m 5 % u.$ 8 x.$ $ }.- $ % }.$ $ $ b.j.$ $ ",
"$ $ $ c.e.$ $ J <.<.-.        M v       f.qX,X,X,X{.<.<.Q       a 2 4 7 } ! E b $.1.I r.z $ i.$ 6 b.$ $ ].2 $ $ }.$ $ $ x.z.$ $ ",
"$ $ $ v.w.$ % F n / ` c M / *._         { <X:X,X#XV.-.` E W %.<.-.] 7 0 G F V O T q.7 L H $ i.$ 4 c.$ $ ].6 $ $ ].& $ $ j.x.$ $ ",
"$ $ $ k.[ y <.<.w     ` <.<.<.-.          C B.R.[ y       x <.<.<. .k 0 H K 9.2 3.6.0 H L $ i.$ 2 P.$ $ _.0 $ $ /.- $ $ w.U.$ $ ",
"$ $ $ u.,.W -.<.y     Q <.<.<.<.d     e b / '               ` <.<.<.P 0 3.K q.- 7.3.H z 4.$ i.$ - Y.$ $ P.7 $ $ _.4 $ $ e./.$ $ ",
"$ $ $ w.<.-.w E c     b <.<.<.%.E Q $.<.<.<.<.x             y <.<.<.<.F 3.L t.* 0.K K 6 4.$ v.$ * ].$ $ c.0 $ $ /.0 $ $ 0._.$ $ ",
"$ $ $ Y <.<.w   M %.( Q v d w   e <.<.<.<.<.<.'               / ( E c p l L k.% w.0 H ; 7.$ v.$ $ }.$ $ v.G $ $ U.z $ $ 8.].$ $ ",
"{ { ^ ~ %.<.e   x <.<.<.          ' <.<.<.<.<.<.y   t b Q ' -.'         @ l k.& u.0 3.- 0.$ i.$ $ }.$ $ k.K $ $ P.K $ $ 7.].$ $ ",
"<.<.<.M   x d   t <.<.<.y         E <.<.-.' Q c c -.<.<.<.<.<.<.y         X s.1 k.6 8.% e.$ i.$ $ }.$ $ j.4.$ $ x.K $ $ 3.}.$ $ ",
"<.<.<.M     _ $.E ` -.<.v   . t x E c t         . -.<.<.<.<.<.<.E           / [ d.2 e.$ u.$ k.$ $ /.& $ l.0.$ $ k.K $ $ K  X$ $ ",
"<.<.<.M     / <.<.w   . N -.<.<.<.=.              ` <.<.<.<.<.<.$.  w y d c E W Z = e.$ k.$ j.% $ I.- $ w.e.$ $ u.3.$ $ 0  X* $ ",
"  e d M t   / <.<.t     b <.<.<.<.<.e             W <.-.%._ E R +.C.C.:.<.<.v       V < f.$ u.* $ D.2 $ 0.t.$ $ w.8.$ $ 5  X2 $ ",
"      E <.#.! %.<.y   . m <.<.<.<.<.y     w y b W E e       C |.>X0XqX;XC.<.t       ' <.;.h r.- $ c.5 $ 8.j.$ $ e.e.$ $ : T.[ [ ",
"      E <.<.n   u b Z S.H.n.&.%.` / / ' =.<.<.<.<.Q         ).>X0XtX0X>X#X&.      w <.<.<.-.v S S m.> o j P I I X.Z ( y   *.<.<.",
"      M <.<.M   r N.$X%X$X@XA.a     / <.<.<.<.<.<.E       a >X>X>XqXtXqX;X^ v b M v y .   E <.<.<.E       E <.<._     #.E ( %.-.",
"-.%.' Q ! %.W   B #X$X$X>X>X$Xy.    W <.<.<.<.<.<.n . y c a.>X>X>X>X>X%XS.=.<.<.=.w     w -.<.<.=.w     w =.<.<.d   d <.-.      ",
"<.<.<.Q     x M Z ~.OX+X$X>XyXd.    n *.' ( W b d _ <.<.<.T.>X>X0XqX0X;XO.<.<.<.M       Q <.<.<.M       Q <.<.$.    E <.$.      ",
"<.<.<./     t <.;.A.H.`.OX$X>XS.' %.(             $.<.<.<.T.tXtXtX0X0X[ -.<.<.%.      r C.oXoX&.y u d d ` ' *.b     %.<.`       ",
"<.<.<._       <.;.h.A.G.`.OX%XS.-.<.$.            <.<.<.<.L.>X0X0X>Xa.M ` ` / / M E /  .2X5X5XC.<.<.<.x     e =.' W M ( W .     ",
"  e t c / M c ' *.+.z.J.~.).d.o.<.<.<.    w t d v W M b x C ;X0X;XT.'       y <.<.<.' ] 2X5X5XoX<.<.`       W <.<.E     M <.<.<.",
"      t <.<.<.x   w p g.d.A ~ M b c d ( =.<.<.<./         e V.T.M.<.y       ` <.<.<.u C 2X5X5X1X<.<.y     w -.<.<.y     / <.<.<.",
"      e <.<.<.M       =.=.<.'         / <.<.<.<.M         E <.<.<._       d <.<.<.`   f 2X7X5X2X1._       M <.<.=.      ` <.<.<.",
"      w <.<.<./       _ <.<.<.r       E <.<.<.<.c         =.<.<.<.d w e e / %.$.' M c @.5X5X5X2X;.E v v c W ` ' / w     $.<.<.<.",
"<.<.-.%.t y d v ( / / W v n M M E Q / Q v v c d ( $.%.=._       t <.<.<.'       y <.<.Q.5X5X2X1X .<.<.<.`       E <.<.<.w       ",
"<.<.<.-.      t <.<.<.`       x <.<.<.'         %.<.<.<.M       E <.<.<.M       E <.<.V.6X1X1XZ.( <.<.<.n       _ <.<.<.        ",
"<.<.<.<.      w <.<.<.%.      t <.<.<.%.        -.<.<.<.u       ' <.<.<.t       #.<.<.<.p i     $.<.<.<.t       %.<.<.<.        ",
"<.<.<.<.      . <.<.<.-.      w <.<.<.-.        <.<.<.<.w       =.<.<.<..       -.<.<.<.        -.<.<.<.        -.<.<.-.        "
};
