/* XPM */
static char *_c9e1555b09140adaa3dd11b535f72634wmEG2NbUjucVLHm[] = {
/* columns rows colors chars-per-pixel */
"80 80 222 2 ",
"   c #040403",
".  c #0A0605",
"X  c #040C05",
"o  c #0B060A",
"O  c #0C0C0B",
"+  c #15070B",
"@  c #061506",
"#  c #0B1504",
"$  c #0A1B06",
"%  c #09130B",
"&  c #071B0B",
"*  c #0B1E0A",
"=  c #15190E",
"-  c #150A12",
";  c #1E0D1E",
":  c #0A1B15",
">  c #141715",
",  c #2D0A0F",
"<  c #271918",
"1  c #351A19",
"2  c #0C2409",
"3  c #0D2B0C",
"4  c #132509",
"5  c #162A09",
"6  c #172A0A",
"7  c #1B340B",
"8  c #16390D",
"9  c #0A2819",
"0  c #172418",
"q  c #0E3717",
"w  c #153A16",
"e  c #242B1C",
"r  c #293519",
"t  c #210F22",
"y  c #261726",
"u  c #2C142D",
"i  c #381527",
"p  c #2E1831",
"a  c #331832",
"s  c #341B35",
"d  c #371A3A",
"f  c #3C1B3C",
"g  c #0B3927",
"h  c #163A26",
"j  c #13352F",
"k  c #2A2929",
"l  c #36282A",
"z  c #283526",
"x  c #33342E",
"c  c #372636",
"v  c #591217",
"b  c #551A31",
"n  c #651724",
"m  c #462B25",
"M  c #51332B",
"N  c #643E35",
"B  c #1B420E",
"V  c #124316",
"C  c #164817",
"Z  c #134B19",
"A  c #1B5314",
"S  c #1E5A15",
"D  c #16551C",
"F  c #244818",
"G  c #33401D",
"H  c #2C5411",
"J  c #255916",
"K  c #355A19",
"L  c #1D631C",
"P  c #216417",
"I  c #266618",
"U  c #226D1C",
"Y  c #356515",
"T  c #396818",
"R  c #27751D",
"E  c #277C1F",
"W  c #2A7E1E",
"Q  c #36751A",
"!  c #3D7418",
"~  c #0B4429",
"^  c #0C4928",
"/  c #134929",
"(  c #155B25",
")  c #165827",
"_  c #195229",
"`  c #134933",
"'  c #155235",
"]  c #195933",
"[  c #374925",
"{  c #245B2D",
"}  c #375324",
"|  c #176226",
" . c #1A6523",
".. c #1C6C24",
"X. c #1B622C",
"o. c #1F7123",
"O. c #276A29",
"+. c #227422",
"@. c #2A7422",
"#. c #257A20",
"$. c #2A7C22",
"%. c #337C21",
"&. c #3B702B",
"*. c #3B772B",
"=. c #407A19",
"-. c #4A7C1D",
";. c #44522A",
":. c #525E2E",
">. c #6B4138",
",. c #46742D",
"<. c #447C32",
"1. c #243745",
"2. c #35374F",
"3. c #431E44",
"4. c #452346",
"5. c #4C224C",
"6. c #4E2451",
"7. c #532554",
"8. c #572959",
"9. c #583357",
"0. c #742443",
"q. c #5E2A61",
"w. c #523B65",
"e. c #632D65",
"r. c #692F6A",
"t. c #633164",
"y. c #67326B",
"u. c #6B326C",
"i. c #70356F",
"p. c #6A3975",
"a. c #753677",
"s. c #79367C",
"d. c #7B397C",
"f. c #34434B",
"g. c #4D5157",
"h. c #6D437B",
"j. c #8B1D2B",
"k. c #81397E",
"l. c #2C831E",
"z. c #31861E",
"x. c #3B871D",
"c. c #34891E",
"v. c #3B8D1F",
"b. c #3E901F",
"n. c #2D8121",
"m. c #388623",
"M. c #46841B",
"N. c #488D1D",
"B. c #44941F",
"V. c #4A931F",
"C. c #519A1F",
"Z. c #428723",
"A. c #458C24",
"S. c #459521",
"D. c #4B9422",
"F. c #4C9A20",
"G. c #529E20",
"H. c #579925",
"J. c #548735",
"K. c #609C35",
"L. c #55A221",
"P. c #5AA523",
"I. c #5DA826",
"U. c #64AB27",
"Y. c #67B028",
"T. c #6CB52A",
"R. c #73BA2D",
"E. c #65A633",
"W. c #71B332",
"Q. c #7BBD34",
"!. c #7DC232",
"~. c #669147",
"^. c #75B34A",
"/. c #769362",
"(. c #82C734",
"). c #86CA35",
"_. c #82BA5B",
"`. c #819970",
"'. c #94C473",
"]. c #7A3780",
"[. c #7D3A81",
"{. c #7D4987",
"}. c #843B84",
"|. c #883E87",
" X c #863D8B",
".X c #8A3D8C",
"XX c #8E3F92",
"oX c #923F94",
"OX c #84428B",
"+X c #8C428E",
"@X c #874590",
"#X c #8E4495",
"$X c #934596",
"%X c #9A4497",
"&X c #954499",
"*X c #9A459C",
"=X c #96489C",
"-X c #9B499D",
";X c #A0459F",
":X c #A1499F",
">X c #9C46A2",
",X c #9E4AA3",
"<X c #A347A4",
"1X c #A34AA4",
"2X c #A54AA6",
"3X c #A14DA6",
"4X c #A849A7",
"5X c #A247A8",
"6X c #A549A9",
"7X c #A54BAA",
"8X c #A54DA8",
"9X c #A84DA9",
"0X c #AA4CAB",
"qX c #B14CAE",
"wX c #A650AA",
"eX c #AA50AB",
"rX c #AA4BB0",
"tX c #B04BB0",
"yX c #99A690",
"uX c #A8AEA3",
"iX c #A8CB8F",
"pX c #C7DFB5",
/* pixels */
"*X*X*X*X*X&X&X$X$X=X6X0X0X0X6X=X&X&X&X&X5X6X8X8X6X0XqXqXqX0X5X<X<X<X*X$X$X$X$X&X1X8X8X8X5X*X*X*X-X-X1X8X3X3X3X2X6X6X6X5X*X%X%X%X%X$X$X$X$X&X3X8X8X6X3X=X&X&X=X=X",
"*X*X*X*X*X&X&X$X&X&X6X0X0X0X6X=X&X&X&X&X,X8X8X6X6X0XqXqXqX0X5X<X<X<X*X$X$X$X&X&X1X8X8X8X1X*X*X*X-X-X1X8X3X3X3X2X6X6X6X5X*X%X%X%X=X$X$X$X$X&X3X8X8X8X3X=X&X&X=X%X",
"*X*X*X*X*X&X&X&X&X=X6X0X0X0X6X=X&X&X&X&X,X8X8X8X6X0XqXqXqX0X5X<X<X<X*X$X#X&X&X$X5X2X2X2X1X*X*X*X*X-X1X8X3X3X3X5X6X6X6X5X*X%X%X%X=X$X$X$X$X&X5X6X8X8X3X=X&X&X&X&X",
"*X*X*X*X*X&X&X&X&X&X6X0X0X0X6X=X&X&X&X&X,X6X6X8X6X0XqXqXqX0X5X<X<X<X*X$X#X&X&X$X5X2X2X2X1X*X*X*X*X-X1X8X3X3X3X5X6X6X6X5X*X%X%X%X=X$X$X$X$X&X5X6X8X8X5X=X&X&X&X&X",
">X>X*X*X*X&X&X&X&X&X6X0X0X0X6X*X&X&X&X*X5X6X6X6X6X0XqXqXqX0X<X<X<X<X>X&X$X$X$X&X1X5X5X5X5X:X-X-X:X:X1X3X3X3X1X5X5X5X5X5X*X*X*X*X=X&X&X&X&X=X5X2X2X2X5X*X=X=X=X=X",
",X,X,X,X>X&X&X&X&X&X2X0X6X0X6X2X2X2X2X2X0X0X0X0X0X0X0X0X2X2X2X<X<X<X1X=X&X&X&X&X,X,X,X,X3X0X0X0X0X0X,X,X,X,X-X%X%X%X%X*X,X,X,X,X5X3X3X3X3X3X1X1X1X1X,X,X,X,X,X,X",
"5X5X5X5X,X&X&X&X&X&X2X0X0X8X0X4X4X4X4X4X0XeXeXeX0X0X0X0X2X<X%X.X.X.X.X}.[.[.[.[. XOX X XOX#X$X$X$X#X#X=X-X,X-X&X&X&X&X%X,X5X6X6X5X6XwXwXwX8X1X,X:X-X,X5X3X3X3X3X",
"5X5X5X5X,X&X&X&X&X&X2X0X0X8X8X4X4X4X4X4X0XeXeXeX0X0X0X0X2X%Xe.f f f f s s s s s d d d d f f f f f f 8.@X,X,X-X&X&X&X&X%X,X8X8X6X5X6XwXwXwX8X1X,X:X:X,X5X3X3X3X3X",
"5X5X5X5X,X&X&X&X&X&X2X0X0X0X0X4X4X4X4X4X0XeXeXeX0X<X%XoXoXd.c X X X @ @ @ @ # # # # # # # # # # # # c a.OXOX@X$X&X&X%X%X,X5X5X5X5X6XwXwXwX8X1X,X,X,X,X,X3X3X3X3X",
",X,X,X,X>X&X&X&X&X*X2X8X8X8X8X2X2X2X2X2X6X6X8X8X6XoXe.f f c z V V V C A A A J Y Y Y Y Y Y Y Y Y Y Y [ c f f 8.|.&X%X%X%X,X,X,X,X5X6X8X8X8X8X1X1X1X1X1X,X3X3X3X3X",
"*X*X*X*X*X1X1X1X3X3X1X1X1X1X1X;X;X;X;X;X*X*X*X&X$Xa.s X X & Z ....o.#.l.l.c.B.G.L.L.L.L.P.P.P.L.L.L.T 4 # @ s i.+X%X=X=X*X*X*X*X*X2X2X2X2X2X0X0X0X0X0X8X8X8X8X8X",
"*X*X*X*X*X1X8X8X8X8X1X1X1X1X1X;X;X;X;X*X*X*X*X X8.c z V V C L #.#.#.W l.v.B.F.L.L.L.L.L.U.R.Y.P.L.L.N.T J A z c 8.|.*X=X=X*X*X*X*X<X2X2X2X2X0X0X0X0X0X6X6X6X8X8X",
"*X*X*X*X*X1X8X8X8X8X1X1X1X1X1X;X*X*X*X*X*X*X*Xs.a % Z ......#.l.l.l.l.c.B.L.L.L.L.L.P.I.T.(.R.I.P.L.L.G.V.c.J $ u d.-X-X=X*X*X*X*X<X2X2X2X2X0X0X0X0X0X8X6X8X8X8X",
"*X*X*X*X*X1X8X8X8X8X1X1X1X1X1X;X*X*X*X*X*X*X*Xs.p @ Z ..+.#.W l.l.l.v.B.F.L.L.L.L.L.U.R.!.).!.R.Y.P.L.L.F.B.Y $ u d.-X-X*X*X*X*X*X<X2X2X2X2X0X0X0X0X0X8X6X6X8X8X",
"*X*X*X*X*X1X8X8X8X1X1X1X1X1X1X;X*X*X*X*X*X&XXXi.p & Z ..#.l.l.l.l.z.B.L.L.L.L.L.P.P.T.(.).).).).R.I.P.L.L.L.! 5 p u.$X&X*X*X*X*X*X1X<X<X1X<X0X0X0X0X0X6X6X6X6X6X",
"4X4X4X4X4X1X,X,X,X,X5X2X2X2X5X*X*X*X*X>X>X.Xq.c z V D ..#.l.l.l.l.z.B.L.L.L.L.L.U.R.!.).).).).).!.R.Y.P.L.L.M.J z c 8. X,X,X,X,X,X=X%X%X%X%X&X&X&X&X&X5X6X6X6X6X",
"0X0X0X0X4X1X,X,X,X,X8X8X8X8X5X>X>X>X>X>X>X].a % Z  ...o.#.l.l.l.l.z.B.L.L.G.L.P.T.!.(.(.).).).).).(.R.P.L.L.V.z.S * u a.,X3X3X3X,X%X%X%X%X%X#X#X#X#X&X5X6X6X6X6X",
"0X0X0X0X4X1X,X,X,X,X8X8X6X8X5X>X>X>X>X>X>Xs.u @ Z ..+.#.W l.l.l.l.z.B.G.F.B.F.L.U.T.T.T.Q.).).).!.R.U.P.L.L.F.c.S $ u a.,X3X3X3X,X%X%X%X%X%X#X#X#X#X&X5X6X6X6X6X",
"0X0X0X0X4X,X,X,X,X,X6X6X6X,X*X$X$X$X$X$X>Xs.u @ Z ..#.l.l.l.l.l.l.z.B.G.b.c.B.L.L.P.P.P.T.(.).).R.I.L.L.L.L.F.c.S $ u a.,X=X=X=X$XOX+X$X%X$X#X#X#X#X&X5X6X6X6X6X",
"0X0X0X0X2X,X-X-X,X,X5X5X5X Xq.5.5.5.5.e..Xs.u @ Z o.#.l.l.l.l.l.l.z.B.G.b.z.B.L.L.L.L.P.T.(.).).R.P.L.L.L.L.F.c.S $ u a.+Xt.6.6.6.5.8.d.%X%X#X#X#X#X&X5X6X6X6X6X",
"-X-X-X-X*X-X-X-X-X-X*X-X*Xu.t o O O O p a.a.u @ Z ..#.l.l.l.l.l.l.l.B.F.b.z.B.L.L.L.L.L.T.!.).).R.P.L.L.L.L.B.c.S $ t i.d.s O O O o t r.*X*X&X&X&X&X&X0X0X0X0X0X",
"-X-X-X-X=X*X-X-X-X-X*X*X*Xr.; @ 3 8 q h 4.3.- @ Z ..+.#.W l.l.l.l.l.v.b.c.l.B.L.L.L.L.L.U.T.Q.).R.P.L.L.F.B.v.z.S $ - f 4.z q 8 3 @ ; e.>X>X&X&X&X&X=X0XrXrXtXtX",
"-X-X-X-X-X-X-X-X-X-X*X*X*Xu.t 4 J U  .Z 0 o   @ Z ....o.#.l.l.l.l.l.l.l.l.l.B.G.L.L.L.L.L.P.T.!.R.P.L.L.F.c.l.l.S $   o : Z  .U S 4 ; r.>X>X&X&X&X&X=X0XrXtXtXtX",
"=X=X-X-X-X-X-X-X-X-X*X*X*X}.8.c r A U  .q : X @ Z ..+.#.W l.l.l.l.l.l.l.l.l.c.B.F.L.L.L.L.L.U.T.U.P.L.L.S.c.l.l.S $ X : q L U A r c 8.[.>X>X&X&X&X&X=X0XrXtXtXtX",
"-X-X-X-X-X-X-X-X-X-X*X*X*X%X$Xt.< 3 P +._ g % @ Z ..#.l.l.l.l.l.l.l.l.l.l.l.l.z.B.G.L.L.L.L.L.P.P.L.L.L.B.z.l.l.S $ % g _ +.P 3 t t.#X&X*X*X$X$X&X&X=X0XqXqXqXqX",
"1X1X1X1X1X-X-X-X-X-X<X<X<X<X;Xy.; 2 P #.X./ & @ Z o.#.l.l.l.l.l.l.l.#.#.#.#.W l.c.B.B.B.F.L.L.L.L.L.F.B.v.l.W #.A $ & / X.#.P 2 ; r.=X=X=X&X$X$X$X$X=X0XqX0X0X0X",
"1X1X3X3X1X-X-X-X-X-X<X<X<X<X<Xr.; 2 P #...D & @ Z o.#.l.l.l.l.l.l.l.+.......+.W l.l.z.z.B.G.L.L.L.L.B.c.l.l.E +.Z @ & Z ..#.P 2 ; r.&X&X=X&X&X$X$X$X%X0XqXqX0XqX",
"1X1X1X3X1X-X-X-X-X-X<X<X<X<X<Xr.; 2 P $.o.( q 9 ( ..+.#.W l.l.l.l.W +.( / V V A P R W l.c.B.F.L.F.B.v.l.W #.L C 3 X & D o.#.P 2 ; r.=X&X=X&X&X$X$X$X%X0XqXqX0X0X",
"1X1X3X3X1X-X-X-X-X-X<X<X<X<X<Xy.t 2 P E o.| ` ` ( ....o.#.l.l.l.l.$.X.` 9 X X @ w  .+.l.l.z.B.G.S.c.l.l.#.o.Z * X   & D o.E P 2 ; r.&X&X=X&X$X$X$X$X&X0XqXqXqX0X",
"3X1X3X3X1X-X-X-X-X-X1X<X<X<X<Xd.5.l F S U ..] ' | ..o.+.$.l.l.l.l.$.X.` 9   - < e V D O.+.#.n.m.m.$.+.O.( Z w < ; . * D U S F c 7.a.%X%X%X&X&X&X&X&X*X4X0X0X0X0X",
",X,X,X,X,X,X,X,X,X,X6X8X8X8X2X-X$Xy.y 3 P +.] ' | ..#.l.l.l.l.l.l.$.X.` 9 . i b i % 9 ` ] ..o.+.+...X.] g & < b b + 2 L P 3 y t.OX#X%X%X%X&X5X6X6X6X2X*X%X%X%X%X",
",X,X,X,X,X,X,X,X,X,X6X6X8X8X8X2X<X|.7.c F D ` ' | ..+.#.l.l.l.l.l.$.X.` 9 o i 0.b 1 < g ~ ( X.X.X.X./ g 0 1 v 0.b - @ 8 F l 6.].=X%X%X%X%X&X6X0X0X0X6X*X&X&X&X&X",
",X,X,X,X,X,X,X,X,X,X6X6X8X8X6X2X<X-X$Xy.y : h ' | ....o.#.l.l.l.l.$.X.` 9 o i 0.j.j.v O 9 ` ' ' ' ' g % 1 j.j.j.b -   X y t..X$X=X%X%X$X$X&X6X0X0X0X6X%X&X&X&X&X",
",X,X,X,X,X,X,X,X,X,X6X6X8X8X6X2X<X1X<X|.7.p j g ( ..o.+.W l.l.l.l.n.@.O.h : y b n n , . 9 ` / g ~ ' g X , v n b i + - u 6.[.=X=X=X%X%X$X%X&X6X0X0X0X6X%X&X&X&X&X",
",X,X,X,X,X1X5X5X5X5X8X6X8X8X6X2X<X<X<X*X.Xt.y 2 Z ..#.W l.l.l.l.l.l.m.A.O.h 0 - + + .   3 ( V % q ( V X . + + + o   t r. X#X=X=X&X%X%X%X%X&X3X6X8X8X2X=X%X%X%X%X",
"&X&X&X&X=X0X0X0X0X0X3X,X,X,X5X8X1X1X8X1X-Xa.u @ Z ..+.E l.l.l.l.l.z.B.G.m.O.F 7 7 7 7 7 J R J 8 J @.I 8 7 7 7 7 4 X u a.=X=X=X=X=X=X=X=X=X=X,X3X3X3X5X1X:X:X:X:X",
"&X&X&X&X=X0X0X0X0X0X5X,X,X,X5X8X8X8X8X1X-Xa.u @ Z ....+.#.l.l.l.l.z.B.G.F.D.A.M.M.M.M.M.N.D.V.M.N.D.N.M.M.M.M.M.K $ u a.=X=X=X=X=X=X=X=X=X=X,X3X3X3X5X1X1X:X:X:X",
"&X&X&X&X=X0X0X0X0X0X5X,X,X,X,X8X8X8X8X1X-X}.5.k h D L +.E l.l.l.l.z.B.L.L.L.F.S.F.L.^._.^.I.L.L.L.L.L.L.L.L.E.^.~.K x 9.a.+X=X=X=X=X=X=X=X=X,X3X3X3X5X1X:X:X:X:X",
"&X&X&X&X=X0XeXeXeX0X5X,X,X,X,X8X8X8X8X1X-X$X}.t.k 3 S W l.l.l.l.l.z.B.L.L.G.m.$.m.P.'.pXiXE.L.L.L.L.L.L.L.L._.pXiX~.T e f a.=X=X=X=X=X=X=X=X,X3X3X3X5X1X:X:X:X:X",
"&X&X&X&X=X0X0X0X0X0X,X,X,X,X,X8X1X1X1X1X-X-X-Xd.p @ A E l.l.l.l.l.l.v.F.G.G.m.$.Q =./.uX`.,.! ! ! ! ! ! ! ! ~.yXyXJ.H $ t i.*X*X*X=X=X=X=X=X,X5X5X5X5X1X1X1X1X1X",
"&X&X&X&X%X<X<X<X2X<X*X&X&X&X&X*X;X;X<X;X:X:X:Xk.a @ C o.E l.l.l.l.l.z.v.B.G.F.A.K 5 e x z 5 4 4 4 4 4 4 4 4 e x x 0 $ X u d.0X0X2X&X&X&X&X&X<X<X<X2X2X8X6X6X6X6X",
"&X&X&X&X%X<X<X<X<X<X&X&X&X&X&X*X;X;X;X;X<X1X1X.X5.y h D U $.$.W l.l.l.l.v.F.F.C.Y 7 5 5 5 5 5 5 5 5 5 5 5 5 5 5 $ X o t 5..X0X0X0X&X&X&X&X&X<X<X<X2X2X8X6X6X6X6X",
"&X&X&X&X%X<X<X<X<X<X&X&X&X&X&X*X;X;X;X;X;X:X1X%X|.t.k 3 D o.o.+.#.l.l.l.z.v.B.G.N.=.=.=.=.=.=.=.=.=.=.=.=.=.=.=.H $ t e..X:X0X0X0X=X&X&X&X&X<X<X<X<X2X8XwXwX8X8X",
"&X&X&X&X%X<X<X<X<X<X&X&X&X&X&X*X;X;X;X;X;X:X1X1X1X.X5.y w D D D S P P P P I Q Z.Z.Z.Z.Z.Z.Z.Z.Z.Z.Z.Z.Z.M.=.=.=.K k 5..X0X0X0X0X0X&X&X&X&X&X<X<X<X<X2X6XwXwX8X8X",
"%X%X*X%X*X<X<X<X<X<X%X&X&X&X&X*X<X<X<X;X:X:X:X:X<X&X}.t.k & & & 2 2 2 2 2 2 w _ _ _ _ _ _ _ _ _ _ _ _ _ C 7 5 5 x t.|.*X0X0X0X0X0X*X&X=X&X*X<X<X<X<X5X3X8X8X8X8X",
"0X0X0X0X6X;X*X*X*X*X:X:X1X:X1X8X8X6XwX6X1X<X<X<X2X6X0XoX7.; o   X @ @ @ @ & 9 g ~ ~ ~ ~ ~ ~ ~ ~ ~ ~ ~ ~ 9 X o ; 5..X2X6X0X0X0X0X8X8X8X8X8X5X-X=X=X=X=X&X&X&X&X&X",
"rXrXrXrX0X>X*X*X*X*X1X1X1X1X1XwXwXwXeXwX8X1X1X1X2X0X0X,X Xe.u X 3 Z Z Z Z Z ( ( ( ( |  . . . . . . . . .V @ t 8.}.*X5X5X8X8X0X0X8X8X8X8X6X6X=X=X=X=X&X$X$X$X&X&X",
"rXrXrXrX0X>X*X*X*X*X1X1X1X1X1XwXwXwXeXwX8X1X1X1X2X6X0X6X$Xa.c * Z ................o.#.l.l.c.c.c.c.c.z.l.S 3 l u.XX>X<X5X8X0X0X0X8X8X8X8X8X6X=X=X=X=X&X$X$X&X&X&X",
"rXrXrXrX0X>X*X*X*X*X1X<X<X1X1X6XwXwXwXwX8X1X1X1X<X6X0X&Xq.s h Z ( ..............+.#.W l.v.B.F.F.F.F.b.z.R J F l 7..X6X6X6X8X0X0X0X0X0X0X0X8X=X=X=X=X&X$X&X&X&X&X",
"0X0X0X0X0X>X*X*X*X*X1X1X1X1X1X6X6X6X8X8X8X8X8X8X2X5X&Xa.c 2 Z ..| | | | | | | ..+.l.l.c.B.G.G.F.F.F.S.c.z.l.S $ p [.5X5X8X8X8X8X8X0X0X0X0X8X-X=X=X-X=X&X&X&X&X&X",
"<X<X<X<X<X5X5X5X5X5X&X&X$X$X&X>X>X>X>X>X6X0X0X0X0X$Xq.c G S L | ( ~ ~ ~ ~ ^ ( ..+.l.v.B.F.L.S.n.$.$.m.S.b.z.S $ u d.>X>X5X5X5X5X2X0X0X0X0X0X<X<X<X<X1X8X8X8X8X8X",
"<X<X<X<X<X8X6X6X8X5X$X$X$X$X$X*X>X>X>X>X0X0X0X0X0X.Xd @ A l.#.../ g g ~ ~ / ( | +.l.B.G.L.L.A.@.+...n.F.S.c.S $ y y.OXOX$X,X5X5X2X0X0X0X0X0X<X<X<X<X2X8X0X0X0X0X",
"<X<X<X<X<X6X6X6X5X5X$X$X$X$X$X*X>X>X>X>X0X0X0X0X0X.Xd @ A l.m.m.( g { *.A.J.O./  .l.B.G.L.L.F.S.n.o.n.F.S.c.S $ > 1.2.2.w.@X5X5X2X0X0X0X0X0X<X<X<X<X2X8X0X0X0X0X",
"<X<X<X<X<X6X6X6X5X5X$X$X$X$X$X*X>X>X>X>X0X0X0X0X0X.Xd @ A z.B.D.O./ *.I.R.Q.<.~ ( W v.F.L.L.L.L.A.@.m.F.B.c.S $ % g ~ ~ f.h.&X,X2X0X0X0X0X0X<X<X<X<X2X6X0X0X0X0X",
"5X<X<X<X<X5X5X5X5X5X&X$X$X$X&X*X>X>X>X>X6X0X0X0X0X.Xd @ A z.B.G.Z.%.H.R.!.Q.<.~ ( W c.v.S.L.L.L.F.A.m.v.c.l.S $ 2 J *.J.<.g.w.OX5X0X0X0X0X0X2X<X<X<X2X6X0X0X0X0X",
"&X&X&X&X&X>X>X>X,X,X,X,X,X5X,X*X*X*X*X>X2X6X6X6X6X.X3.> A W B.G.L.P.R.).).Q.<.~ ( E l.l.v.F.G.G.G.G.B.z.l.l.A $ 7 M.Y.!.E.{ 1.h.&X*X*X*X*X>X6X6X6X6X6X0X0X0X0X0X",
"$X$X$X$X&X>X>X>X>X,X5X5X5X5X5X*X*X*X*X*X<X6X6X6X6X&Xa.8.z B I b.F.P.R.).).Q.<.~ ( +.E l.c.v.b.b.b.b.v.l.W +.Z @ 7 H.Q.(.E.{ 1.p.$X=X=X%X%X*X6X0X0X0X0X0X0X0X0X0X",
"$X$X$X$X&X>X>X>X>X,X5X5X5X5X5X*X*X*X*X*X<X6X6X6X6X5X,X.X3.> A W x.F.U.Q.Q.W.*.h /  .@.%.%.%.%.%.%.%.%.%.@. .V * F E.).).E.{ 1.p.$X=X=X%X%X*X6X0X0X0X0X0X0X0X0X0X",
"$X$X$X$X&X>X>X>X>X>X5X5X5X5X5X*X*X*X*X*X<X6X6X6X6X8X6X=Xa.7.z 8 B F K *.*.&.} z x [ ;.:.:.:.:.:.:.:.:.:.[ w 8 H -.W.).).E.{ 1.p.$X=X=X=X%X*X6X0X0X0X0X0X0X0X0X0X",
"#X#X$X$X&X>X>X>X,X,X5X5X5X5X5X*X*X*X*X*X5X6X6X6X<X,X,X,X>X.X4.O   X 9 g g j z m m m M N N N N N N >.>.>.m O 7 ! H.W.Q.Q.K.{ 2.h.&X=X=X=X%X*X5X6X6X6X6X0X0X0X6X6X",
"#X#X#X#X&X,X6X6X6X5X1X1X1X1X>X*X=X=X=X*X,X5X5X5X,X*X*X*X*X$Xi.5.t   > k k k l m 1 < < 1 1 1 1 1 m M N N l O 2 F O.*.*.*.,.g.h.$X3X&X$X%X%X%X*X*X*X*X*X*X*X*X*X*X",
"#X#X#X#X&X,X8X8X8X6X1X1X1X1X*X=X=X=X=X=X,X,X,X,X,X*X*X*X*X&XXXa.d O < m m m m m < - - - o   X X < m m m 1 - : j j j j j f.{.8X6X8X=X$X$X$X%X=X*X*X*X*X*X*X*X*X*X",
"#X#X#X#X&X,X8X8X6X8X1X1X:X:X*X=X=X=X=X=X,X,X,X,X,X*X*X*X*X#Xr.4.k w F [ } } r < s 6.7.6.u . $ 8 F } G < i 5.8.w.w.w.w.w.h.=X0X0X6X&X$X$X%X%X=X*X*X*X*X*X*X*X*X*X",
"#X#X#X#X&X,X8X8X8X5X1X:X:X:X*X&X=X=X=X=X,X,X,X,X,X*X*X*X*X X3.O w  ...+.@.R B = 4.}.$X$X7.- 3 U W W J * s a..XXX$X$X$X$X3X0X0X0X6X&X$X$X%X%X=X*X*X*X*X*X*X*X*X*X",
"&X&X&X&X&X,X8X8X8X8X1X1X1X:X*X=X&X&X&X=X,X,X,X,X,X>X*X*X*X Xf X V  .o.#.z.v.Q H x 7.a.$X8.- 8 R c.b.Q H [ 4.r..X*X%X%X*X0X0XeXeX8X-X&X&X&X&X*X*X*X*X*X*X*X*X*X*X",
"8X8X8X8X8X3X3X3X3X3X1X<X<X<X<X=X=X=X=X=X>X,X,X,X,X6X6X6X6XXXf X q  .U W v.V.V.M.F > 5.|.7.O 8 U x.V.V.N.K = f .X6X6X6X6X0X0X0X0X0X5X,X,X,X,X5X8X6X6X5X>X>X>X>X>X",
"0X0X0X0X0X3X3X3X3X3X5X<X<X<X<X=X=X=X=X=X,X,X,X,X,X6X0X0X0XoXf   2 q w V F H H H 5 O 3.|.7.O $ 8 F H H H 7 X s .X0X0X0X0X0X0X0X0X0X6X8X5X5X5X6X6X6X6X8X,X>X>X>X>X",
"0X0X0X0X0X3X3X3X3X3X5X<X<X<X<X=X=X=X=X=X,X,X,X,X,X6X0X0X0XoX3.o . O O O O % % O X o 5.|.8.- . O O O % % O . f .X0X0X0X0X0X0X0X0X0X8X6X5X5X5X6X6X6X6X8X,X>X>X>X>X",
"0X0X0X0X0X3X3X3X3X3X5X<X<X<X<X=X=X=X=X=X-X,X,X,X,X6X0X0X0X*Xu.5.5.5.5.5.5.5.5.5.3.5.r..Xa.5.4.4.4.4.5.5.5.5.u.&X0X0X0X0X0X0X0X0X0X8X5X5X5X5X6X6X6X6X8X,X>X>X>X>X",
"8X8X8X8X8X3X3X3X3X3X5X<X<X<X<X*X*X*X*X*X,X,X,X,X,X6X6X6X6X6X*X%X%X%X%X=X=X=X=X%X.X.XoX%X$X+X+X+X+X#X&X&X&X&X-X6X0X0X0X0X0X0X0X0X8X5X5X5X5X5X6X6X6X6X6X>X>X>X>X>X",
"*X*X*X*X>X8X0X0X0X0X6X6X8X8X6X8X2X2X2X2X<X<X<X<X1X=X=X=X&X*X3X3X3X3X3X,X-X-X-X-X=X=X=X=X=X,X1X1X1X,X-X-X-X-X-X6X0X0X0X8X5X5X5X5X5X,X,X,X,X,X8X0X8X8X6X>X>X>X>X>X",
"*X*X*X*X>X8X0X0X0X0X6X8X8X8X8X0X0X0X0X0X<X<X<X<X<X=X%X%X%X&X,X8X8X8X3X-X-X-X-X-X=X=X=X=X=X1X1X1X1X,X-X-X-X-X-X6X0X0X0X0X5X5X5X5X5X>X>X>X>X,X6X0X0X0X6X>X>X>X>X>X",
"*X*X*X*X>X0X0X0X0X0X8X8X8X8X8X0X0X0X0X0X<X<X2X2X<X%X%X%X%X%X,X8X8X8X3X-X-X-X-X-X=X=X=X=X=X,X1X1X1X,X-X-X-X-X-X6X0X0X0X0X5X5X5X5X5X>X>X>X>X,X8X0X0X0X6X>X>X>X>X>X",
"*X*X*X*X>X0X0X0X0X0X8X8X8X8X6X0X0X0X0X0X<X2X2X2X<X%X%X%X%X&X,X3X8X8X3X-X-X-X-X-X=X=X=X=X=X,X1X1X1X,X-X-X-X-X-X6X0X0X0X0X5X5X5X5X5X>X>X>X>X,X8X0X0X0X8X>X>X>X>X>X",
">X>X>X>X>X0X0X0X0X0X8X8X8X8X8X8X8X8X8X0X<X<X2X2X<X=X=X%X&X=X,X8X8X8X3X-X-X-X-X-X-X=X=X=X-X,X1X1X1X,X=X&X&X&X*X6X0X0X8X6X5X5X5X5X5X>X>X>X>X>X8X6X8X8X8X,X>X>X>X>X",
"6X6X6X6X6X0X0X0X0X0X8X8X8X8X3X3X,X,X,X,X1X<X5X5X>X<X<X<X>X>X5X5X5X5X5X1X1X1X1X1X:X:X-X-X-X1X,X,X5X>X%X%X&X&X%X8X0X0X0X0X6X8X8X8X3X=X&X&X&X=X>X,X,X,X,X,X,X,X,X,X",
"0X0X0X0X0X0X0X0X0X0X6X8X8X8X3X,X,X,X,X,X5X5X,X5X,X5X5X5X5X5X5X<X2X2X2X<X<X<X<X1X:X:X:X:X1X5X5X5X5X>X&X&X&X&X%X8XeXeXeX0X8X8X6X6X3X$X$X$X$X&X-X>X,X,X,X,X,X,X,X,X",
"0X0X0X0X0X0X0X0X0X0X6X8X8X8X3X,X,X,X,X,X,X,X,X5X>X5X5X5X5X5X5X<X2X2X<X<X<X<X<X1X:X:X:X:X1X5X5X5X5X>X&X&X&X&X%X0XeXeXeX0X8X8X6X6X3X$X$X$X$X$X-X>X,X,X,X,X,X,X,X,X",
"0X0X0X0X0X0X0X0X0X0X8X8X8X8X3X,X,X,X,X,X,X>X>X>X>X1X5X5X1X1X5X<X2X2X2X<X<X<X<X1X:X:X:X:X1X5X5X5X5X,X&X&X&X&X%X6XeXeXeX0X8X8X8X8X3X$X$X$X$X$X-X>X,X,X,X,X,X,X,X,X",
"0X0X0X0X0X0X0X0X0X0X8X8X8X8X3X,X,X,X,X,X,X>X>X>X>X1X1X1X1X1X5X<X2X2X2X<X<X<X<X1X:X:X:X:X1X5X5X5X5X>X&X&X&X&X%X6XeXeXeX0X8X8X8X8X3X$X$X$X$X$X-X>X,X,X,X,X,X,X,X,X"
};
