/* XPM */
static char *b9c4d80673934613f8887e7a4e12ead4pzqfCosgXVjntRog[] = {
/* columns rows colors chars-per-pixel */
"80 80 48 1 ",
"  c #679644",
". c #6D9645",
"X c #679A42",
"o c #6C9B45",
"O c #6D9C49",
"+ c #709746",
"@ c #719D46",
"# c #729E49",
"$ c #6EA246",
"% c #6EA349",
"& c #73A346",
"* c #76A847",
"= c #73A24B",
"- c #75A348",
"; c #74A34A",
": c #71A549",
"> c #71A649",
", c #75A548",
"< c #76A448",
"1 c #76A748",
"2 c #77A649",
"3 c #77A24C",
"4 c #73A44C",
"5 c #74A44C",
"6 c #74A74D",
"7 c #74A64E",
"8 c #78A24B",
"9 c #78A54A",
"0 c #7AA74B",
"q c #79A54C",
"w c #71A849",
"e c #77AA49",
"r c #73AD4A",
"t c #73AC4B",
"y c #74AE4B",
"u c #75A94C",
"i c #76AC4C",
"p c #78A84B",
"a c #78AC4A",
"s c #79AD4A",
"d c #7AAB4C",
"f c #78AC4C",
"g c #74B04B",
"h c #74B14C",
"j c #7DB04B",
"k c #77AB50",
"l c #78AB50",
"z c #7BAA50",
/* pixels */
"ooooo....oaaaae@@..@,a99eyhhhr$$$$$@+++@,555>OoooO45555,eee,oXXXX ...O,uu5,.....",
"ooooo....oaaaae@...@,aaaeyhhhr$$$$$@+++@,555>OoooO45555,eee,oXXXX ....,u5u,.....",
"ooooo....@aaaae@...@,aaaeyhhhr$$$$$@+++@,5,,>oooOO45555,eee,oXXXX ...O,uuu5.....",
"ooooo....oaaaae@...@,aaaeyhhhr$$$$$@+++@,,,,>oooOO45555,eee,oXXXX....O,upu,.....",
"$$ooo.....eaaae@...@,aaaeygggr%$$&$....@;,,,,$OO$$=5555,,,,>oooooOO..O,,,,,o....",
",,,,,....@,uuuu>>>>>upppuewwew%%%%%o....;qqqquiiiu3333;XXXXo;,,,9qqqq5=====,,,,,",
",,,,e@...@,uuuuwwwwwullluwwwew%%%%%o....;qqqqfffff3333#XXXXX,999qplllp=====9qqqq",
",,,,e@...@,uuuuwwwwwullluwwwew%%%%%o....;qqqqfffff3333#XXXXX,999qplllp=====9qqqq",
",,,,,@...@,uuuuwwwwwukllpewwww%%%%%o...o;qqqqfffff3333;XXXXX,9a99plllp=====9qqqq",
",,,,,@@@@@>5554>%%%wuuuuuewwww>%%%%o..oo;8889fffff;;33;.XXXX;9999ppppp=====9qqqq",
"ooooo>555444444$$$$$oooo&>www>>&>>&&@@@@@@@@@eiiie>>>>$O....@@@@&>>>>>wirryuppuu",
"XXXXo4555544444$$$oooooo@>www>&&>>&=###@@@@@@uiiie>%%%$OOOOoooooo%>>>>yiyyyuppuu",
"XXXXo455544444%$oooooooo@>www>&&>>&####@@@++@eiiie>%%%$OOOOoo.ooo%>>>>ryyyyu5uuu",
"XXXXo455544444%$ooooooooo>www>&&&>&@###@@@++@eiiie>%%%$OOOOoo..oo%>>>>ryyyyu55uu",
"ooooo445554444>$oooooo@@o>wwww>>&&&=====@@@@@euiiu>%%%$OooooOOOOo$$$%>wwwwwe,,,,",
"wwwww====;,eee,&&&&&;;;;,uuuuu>%%%>weeee====>uuuuu$$$$$@@@@@3333;.   .....@,,,,e",
"rrrrw=====eaaa,&@@&&;,,,,uukk5%%%%%weeew>4444uuuuu%$$$$@@@@@5qqq3     .....,eeee",
"rrrrw====;eaaa,&@@&&;,;,,uuuuu%%%%%eeeew>4444uuuku$$$$$@@@@@5qqq3     .....,eeee",
"rrrrw====;eaaa,&&&&&;,;,,uuuu5%%%%>eeeew>4444uuuku%$$$$@@@@@5qqq3     .....,eeee",
"wwwww=====,e,,,@@@@&;;;;,55555%$==>weeww>>444uuuu5=$===@@@@@5qqq3.    .....,eeee",
"OOOOO###O$$$$$OoOOOO>>>>>>www>;;;;;>&&$&>,,,,=====#####oooooulllp&@@@@@...@eyyyy",
"OOOOOO@@OOooOOOoOOOo>>>>>>www>;;;;;&&&$&,,,,,=#########oooooulllp;;-;#@@@@@eyygg",
"OOOOOO#@OOoOOoooOOoo>>>>>>www>;;;;;&&&&&,,,,,=#########ooooopfllp;;;;&@@@@@yyygg",
"OOOOOO#@$OoOOOooOOoo>>>>>>www>;;;;;&&&&&,,,,,=#########ooooopfffp;;;;&@@@@@yyygg",
"OOOOOO###Ooooooooooo>>44>%%%%>;;--;&&&&&;;,;;=====#####ooooouuuuu&&@@@....@ygggg",
"=====#####$$$$$.....5pppu$$$$$,aaa9&@@@@@@@@@qpppuo.....oooo$===$o...XXoXo.whhhi",
"4444=#####$$$$$.....ulllu$$$$$aappa-@@@@@@@@@pdddpo.....oooo$$$$$....XXXXXowhhii",
"4444=#####$$%%$.....ulllu$$$$$aappa;@@@@@@@@@pdddpo.....oooo$$$$$....XXXXXorhhii",
"4444=#####$$$$$.....5lllu$$$$$aappa;@@@@@@@@@pdddp.........o$$$$o....XXXXoowiiii",
"4444=####=%%%%$.....55uu5$oo$$eaaaa;@@@@@@@@@qpppqo.oo.ooooo$$$$o.   .ooooowwwww",
";;;;;;===;euppe>%$$$o..o.ooooo,9999#####,,,,,####;eeeeerrrrw@@##@    .,eee,oXX..",
";;;;;;;;,,ppppp>>>>$....Xooooo,9999#####,eee,#####aaaaahhhie@###@.   .uppp,oXXXX",
";;;;;;,,;,ppppp>%%%%....Xooooo,999,#####,eee,#####aaaaayiihy&@@@@.   OupppeXXXXX",
";;;;;;,,;,ppppp>%%%%....Xooooo,999,#####,eee,#####aaaaayiihy&@@@@.   OupppeXXXXX",
";;,,=>,,,,ppppp>%%%%....Xooooo99999#####euuu,#@@@#aaaayyiiie@@@@@....O5ppp,o....",
"....o5iiiu5qqq,44444OOOOooooo@adddd;###;pdddp.   .=55555555;.....@@@@#5q555$$$$$",
"ooooouiiii5999,555k4OOOOOooooopdddd-;;;;pddlp.   .=33333333;.....@####;555,$$$$%",
"ooooouiiii,999,4kkk4OOOOOooooopdddd-;;;;pddlp.   .=33333333;.....@####;555,$$$$$",
"oooooukkki,9999555k4OOOOOooooopdddd-##;;pdddp.   .=33333333;O....@####,qq55$$$$$",
"oooo.5iiiu,;;;;44444OOOOOoooo@addda-#;;;pppp5.   .=3===33353OOOOo@@@@#,,55,=$%%%",
"  XXo$>>%%ooooo$$$$$$$$$$&&&@@;;;;;;;;;&o.........@@@@@,uuuu5555>@...o>>>>>ppppp",
"  XXX$%%%$XoXXoo$$$$$$$$$&&&&@@@###;;;;&..........o@o@@euuuuiiiie@...o>>>>>plddd",
"  XXX$%%%$oXXXXo$$$$$$$$$&&&&@@@@##;;;,;..........o@oo@euuuuiiiie@....>>>>>plldd",
"  XXX$%%%%oXXXoo$$$$$$$$$&&&&&@@@##;;;;;..........o@oo@euuuuiiiiu@....>>>>>plldd",
"ooooo$$$%$oXXX.$$$$$$$$$$&&&&&@@@@@;,,,;o.O.......@&@@&euuuuiiiie@@@@@&&&&>qpppp",
"aaaaa$oooo$$$$=upupu4%%%>aaaaa=&&&&adpdp=$$$$$$$$&,e,,e,eeeepfpppu555,####@.....",
"jjjja&oooo$$=$4lllll4444>aaaaa==&&=pdddd>$$%$=====eeeee,,,eepppppppppu####@.....",
"jjjja$oooo$$$$4lllll4444>aaaaa==&&=pdddd>$%%$====>eeeee,,,eepppppppppu####@.....",
"jjjja$oooo$%%$>lllll4444>aaaaa=====ddddf=%%$$=====eeee,,,,e,ppppfpuppu####@.....",
"aaaaa&ooo$$$$$=upppp4444>aaaaa>====pdddp4====$$$$=,,,,,,,,eeuppppuuuuu####@.@@@@",
">>>>>,,,,,ooooo&&&&;aafaaaaaaa,>>>>=##==5uuu5$$$$$======;;,,,,,,,iiiie>%$$=ppppp",
"$$$$>eeee,ooooo@&&&&aaaaaaaaaa,,>>>oooo$5pppu$$$$$oOO$$=###;>>>>>yiiir%%$$>pddll",
"$$$>>eee*,ooooo@&&&&aaaaaaaaaa,,>>>oooo$5pppu$$$$$OOOO==###;>>>>>yiiir>$$$>pddll",
"$$$$>eee*,ooooo@&&&&aaaaaaaaaa,,>>>oooo$5pppu$$$$$OOOO=;###;>>>>>yiiir$$$$>pdddl",
"$$$$>****,@o+++@@@@&aaaaaaaaaa,,,,=ooooO5uuu5$$$$$oOooo##@##====>wwwww>>>>>pdddd",
".@...&,>&&,,,,;@ooo@,eeeeaddd9;;;;@ooooo%>>>%OOOO...ooo.....@....oooooeaaaayaaaa",
"++...@&&&&,,,,,@ooo@,eww,9dda9;###@ooooo$%%%%OOOO.oo...    ..+++.....oaaaaaayyyy",
".+..@@&&;;,,,,,@ooo@,eee,adda9;###@ooooo$%%%%OOOO.oo...X    .+++.....oaaaaaayyyy",
"++...&;;;&,,e,,@ooo@,eee*aada9;###@ooooo$%%%%OOOO.oo...  X ..+++.....oaaaaaayyyy",
"++...&;;;;,,,,>ooooo,eee,,,999;@@@@oooXo$%%%%ooo.oooo..X X  .@@@.....oeaaaaeeeee",
"+++.@9dda9==$$$o@@@@,999,@@@@@@@@@oXXXXo&&&&>$$$$$oooooXXXX.,uuu5.   .oooooooooo",
"++..@9ddda=$$$oo@@@@,999,@@@@@oooooXXXXX&&&&&$$$$$oooooXXXXoufffu......ooooooooo",
"....@9ddd9=$$$oo@@@@,999,@@o@@oooooXXXXX&&&&&$$$$$oooooXXXXoufffu.....oooooooooo",
"....@9ddd9=$$$oo@@@@,999,@oo@@oooooXXXXX&&&&&$$$$$oooooXXXXoufffu.....oooooooooo",
"@@@@@9ddda=$$$oo...@99999&@@@@oooooooooo&&&&&$$$$$$oooooooXoufllp@....oooooooooo",
"55555555q5=$$$$.....;;888aaaae>>>>>eeee,o.XX.OOOOOuppppuuueeffffp,,,,,,e,,,;;;;;",
"uuuuu55555>>>>$.....;;;;8aaaaa>>>>>ufffeoXXX.OOOO#pddddfiiuffffffa99,,aaaaa,;;;;",
"uuuuu55555>>>>$.....;;;;;aaaaa>>>>>ufffeoXXX.OOOO#pdddfiiiiufffffa99,,aaaaa,;;;;",
"uuuuu55555>>>>&.....;;;;;aaaaa>>>>>ufffeoXXX.OOOO#pdddfuuuuupffffa,,,,aaaaa,;;;;",
"5555555555>>>>&ooooo;;;;;eeeee>>4>4uuuu,.XXX.OOOO#pppppuuuuupppfp9,,,,eeeee;;;;;",
"@@@@&pfffpaaaaa54444>>>>%o....qqqqq=####....O=====OOOO#pfffpee,,,;;;,,uuee,;&&&&",
"oo@@&pffffpddddu5555%%%%$.   .qddlq####O....O=533=OOOOOpffff,,e,,;;;,,uuee1&&&&&",
"oooo&fffffpdddpuuuu5>%%%$.   .qdddq####OOO...=333=OOOOOafffa,,,,,;;;;;uuuuu;&&&&",
"oooo&fffffpdddpuuuu5>%%%$.   .qdddq####OO....=333=OOOOOafffa,,,,,;;;;;uuuuu;&&&&",
"&&&&&fffffpppppuuuuu>$$$$.....5pppq####OOO..O=,;==.....affpp,,,,,;;;;;5uuu5;;;;;",
"eeeeefffff55555qqqq5>>>>>&&&&&,,,,,====$$$$$$,ee,&XXXX.5uuuuppppq@...@;;==;,9999",
"aaeuufffffu5555qqqqq,>>>>>>>>>,,,,>>>>>$$$$$$,,,,,XXXXX5llkuppddq@....@;==;899qq",
"aaeeufffffu5555qqqqq,>>>>>>>>>,,,>>>>=>$$$$$$,,,,,XXXXX5kkkuppddq@....@;==;899qq",
"yeeeufffffu5555qqqqq,>;;;;>>>>,,>>>%>>4%%$$$$,,,,,XXXXX5kkkkpppdq@....@;==;99qqq",
"eeeeufffffu5555qqqqq,,;;;;>>>>,,,,>>>>4%%$$$$,,,,,XXXXX5kkkkpppdq@....@;==;899qq"
};
